<svg width="1512" height="2515" viewBox="0 0 1512 2515" fill="none" xmlns="http://www.w3.org/2000/svg">
<path d="M-15 104L13.5448 120.452V156.52L41.4552 172.339V209.04L70 224.859V259.661L41.4552 276.113" stroke="url(#paint0_linear_788_5287)" stroke-opacity="0.6" stroke-width="1.5"/>
<path d="M1357 959.48L1385.54 975.932V1012L1413.46 1027.82V1064.52L1442 1080.34V1115.14L1413.46 1131.59" stroke="url(#paint1_linear_788_5287)" stroke-opacity="0.6"/>
<path d="M69.7649 155.806L70.3984 120.329L42.5236 103.857L14.0153 120.329V155.806L42.5236 172.277L69.7649 155.806Z" stroke="url(#paint2_linear_788_5287)" stroke-opacity="0.4" stroke-width="1.5"/>
<path d="M1441.76 1011.29L1442.4 975.809L1414.52 959.338L1386.02 975.809V1011.29L1414.52 1027.76L1441.76 1011.29Z" stroke="url(#paint3_linear_788_5287)" stroke-opacity="0.2"/>
<path d="M41.6243 207.753L42.2578 172.276L14.383 155.805L-14.1254 172.276V207.753L14.383 224.225L41.6243 207.753Z" stroke="url(#paint4_linear_788_5287)" stroke-opacity="0.4" stroke-width="1.5"/>
<path d="M1413.62 1063.23L1414.26 1027.76L1386.38 1011.29L1357.87 1027.76V1063.23L1386.38 1079.71L1413.62 1063.23Z" stroke="url(#paint5_linear_788_5287)" stroke-opacity="0.2"/>
<path d="M125.324 156.003L125.957 120.526L98.0822 104.055L69.5739 120.526V156.003L98.0822 172.475L125.324 156.003Z" stroke="url(#paint6_linear_788_5287)" stroke-opacity="0.3" stroke-width="1.5"/>
<path d="M1497.32 1011.48L1497.96 976.007L1470.08 959.535L1441.57 976.007V1011.48L1470.08 1027.96L1497.32 1011.48Z" stroke="url(#paint7_linear_788_5287)" stroke-opacity="0.3"/>
<path d="M153.199 207.952L153.832 172.475L125.957 156.004L97.4489 172.475V207.952L125.957 224.424L153.199 207.952Z" stroke="url(#paint8_linear_788_5287)" stroke-opacity="0.3" stroke-width="1.5"/>
<path d="M1525.2 1063.43L1525.83 1027.96L1497.96 1011.48L1469.45 1027.96V1063.43L1497.96 1079.9L1525.2 1063.43Z" stroke="url(#paint9_linear_788_5287)" stroke-opacity="0.3"/>
<path d="M97.4485 104.056L98.082 68.5789L70.2072 52.1074L41.6989 68.5789V104.056L70.2072 120.527L97.4485 104.056Z" stroke="url(#paint10_linear_788_5287)" stroke-opacity="0.3" stroke-width="1.5"/>
<path d="M1469.45 676.949L1470.08 641.471L1442.21 625L1413.7 641.471V676.949L1442.21 693.42L1469.45 676.949Z" stroke="url(#paint11_linear_788_5287)" stroke-opacity="0.3"/>
<path d="M127.223 120.528L98.7143 104.056V68.5791" stroke="url(#paint12_linear_788_5287)" stroke-opacity="0.3" stroke-width="1.5"/>
<path d="M1499.22 693.42L1470.71 676.949V641.472" stroke="url(#paint13_linear_788_5287)" stroke-opacity="0.3"/>
<path d="M182.749 156.949L183.383 121.471L155.508 105L127 121.471V156.949L155.508 173.42L182.749 156.949Z" stroke="url(#paint14_linear_788_5287)" stroke-opacity="0.1" stroke-width="1.5"/>
<path d="M69.7493 52.9485L70.3828 17.4715L42.508 1L13.9996 17.4715V52.9485L42.508 69.42L69.7493 52.9485Z" stroke="url(#paint15_linear_788_5287)" stroke-opacity="0.1" stroke-width="1.5"/>
<path d="M125.749 52.9485L126.383 17.4715L98.508 1L69.9996 17.4715V52.9485L98.508 69.42L125.749 52.9485Z" stroke="url(#paint16_linear_788_5287)" stroke-opacity="0.1" stroke-width="1.5"/>
<path d="M40.7493 311.949L41.3828 276.471L13.508 260L-15.0004 276.471V311.949L13.508 328.42L40.7493 311.949Z" stroke="url(#paint17_linear_788_5287)" stroke-opacity="0.3" stroke-width="1.5"/>
<path d="M1412.75 1167.43L1413.38 1131.95L1385.51 1115.48L1357 1131.95V1167.43L1385.51 1183.9L1412.75 1167.43Z" stroke="url(#paint18_linear_788_5287)" stroke-opacity="0.3"/>
<path d="M70.0467 52.5195L97.9572 68.3387V105.039L126.502 120.859V155.661L97.9572 172.113V206.282L124.599 224" stroke="url(#paint19_linear_788_5287)" stroke-opacity="0.5" stroke-width="1.5"/>
<path d="M1442.05 908L1469.96 923.819V960.52L1498.5 976.339V1011.14L1469.96 1027.59V1061.76L1496.6 1079.48" stroke="url(#paint20_linear_788_5287)" stroke-opacity="0.5"/>
<path d="M69.4993 259.392L70.1328 223.915L42.258 207.443L13.7496 223.915V259.392L42.258 275.863L69.4993 259.392Z" stroke="url(#paint21_linear_788_5287)" stroke-opacity="0.3" stroke-width="1.5"/>
<path d="M1441.5 1114.87L1442.13 1079.4L1414.26 1062.92L1385.75 1079.4V1114.87L1414.26 1131.34L1441.5 1114.87Z" stroke="url(#paint22_linear_788_5287)" stroke-opacity="0.3"/>
<path d="M97.3723 311.341L98.0059 275.864L70.131 259.393L41.6227 275.864V311.341L70.131 327.813L97.3723 311.341Z" stroke="url(#paint23_linear_788_5287)" stroke-opacity="0.3" stroke-width="1.5"/>
<path d="M1469.37 1166.82L1470.01 1131.34L1442.13 1114.87L1413.62 1131.34V1166.82L1442.13 1183.29L1469.37 1166.82Z" stroke="url(#paint24_linear_788_5287)" stroke-opacity="0.3"/>
<path d="M13 260.48L41.5448 276.932V313L69.4552 328.819L70.5 364L98 381.339V416.141L69.4552 432.593V466.763L96.097 484.48" stroke="url(#paint25_linear_788_5287)" stroke-opacity="0.4" stroke-width="1.5"/>
<path d="M1385 1115.96L1413.54 1132.41V1168.48L1441.46 1184.3L1442.5 1219.48L1470 1236.82V1271.62L1441.46 1288.07V1322.24L1468.1 1339.96" stroke="url(#paint26_linear_788_5287)" stroke-opacity="0.2"/>
<path d="M13.5448 155L41.4552 170.819V207.52L70 223.339V258.141L41.4552 274.593V308.763L68.097 326.48" stroke="url(#paint27_linear_788_5287)" stroke-opacity="0.25" stroke-width="1.5"/>
<path d="M1385.54 1010.48L1413.46 1026.3V1063L1442 1078.82V1113.62L1413.46 1130.07V1164.24L1440.1 1181.96" stroke="url(#paint28_linear_788_5287)" stroke-opacity="0.2"/>
<path d="M-14.502 208L14.0428 224.452V260.52L41.9533 276.339V313.04L70.498 328.859V363.661L41.9533 380.113V414.282L68.5951 432" stroke="url(#paint29_linear_788_5287)" stroke-opacity="0.3" stroke-width="1.5"/>
<path d="M1357.5 1063.48L1386.04 1079.93V1116L1413.95 1131.82V1168.52L1442.5 1184.34V1219.14L1413.95 1235.59V1269.76L1440.6 1287.48" stroke="url(#paint30_linear_788_5287)" stroke-opacity="0.15"/>
<path d="M1456.45 2393.54L1457.08 2358.06L1429.21 2341.59L1400.7 2358.06V2393.54L1429.21 2410.01L1456.45 2393.54Z" stroke="url(#paint31_linear_788_5287)" stroke-opacity="0.3" stroke-width="1.5"/>
<path d="M69.7493 2393.54L70.3828 2358.06L42.508 2341.59L13.9996 2358.06V2393.54L42.508 2410.01L69.7493 2393.54Z" stroke="url(#paint32_linear_788_5287)" stroke-opacity="0.3" stroke-width="1.5"/>
<path d="M1429.05 2342L1456.96 2357.82V2394.52L1485.5 2410.34V2445.14L1456.96 2461.59V2495.76L1483.6 2513.48" stroke="url(#paint33_linear_788_5287)" stroke-opacity="0.5" stroke-width="1.5"/>
<path d="M42.3475 2342L70.258 2357.82V2394.52L98.8027 2410.34V2445.14L70.258 2461.59V2495.76L96.8997 2513.48" stroke="url(#paint34_linear_788_5287)" stroke-opacity="0.5" stroke-width="1.5"/>
<path d="M1384.75 1499.95L1385.38 1464.47L1357.51 1448L1329 1464.47V1499.95L1357.51 1516.42L1384.75 1499.95Z" stroke="url(#paint35_linear_788_5287)" stroke-opacity="0.3" stroke-width="1.5"/>
<path d="M1469.75 1799.47L1470.38 1763.99L1442.51 1747.52L1414 1763.99V1799.47L1442.51 1815.94L1469.75 1799.47Z" stroke="url(#paint36_linear_788_5287)" stroke-opacity="0.3" stroke-width="1.5"/>
<path d="M1412.75 1903.54L1413.38 1868.06L1385.51 1851.59L1357 1868.06V1903.54L1385.51 1920.01L1412.75 1903.54Z" stroke="url(#paint37_linear_788_5287)" stroke-opacity="0.3"/>
<path d="M1414.54 1695.59L1442.45 1711.41V1748.11L1471 1763.93V1798.73L1442.45 1815.18V1849.35L1469.09 1867.07" stroke="url(#paint38_linear_788_5287)" stroke-opacity="0.3" stroke-width="1.5"/>
<path d="M1470.75 1997.54L1471.38 1962.06L1443.51 1945.59L1415 1962.06V1997.54L1443.51 2014.01L1470.75 1997.54Z" stroke="url(#paint39_linear_788_5287)" stroke-opacity="0.4" stroke-width="1.5"/>
<path d="M1356.86 1689.95L1357.5 1654.47L1329.62 1638L1301.11 1654.47V1689.95L1329.62 1706.42L1356.86 1689.95Z" stroke="url(#paint40_linear_788_5287)" stroke-opacity="0.4"/>
<path d="M1301 1586L1329.54 1602.45V1638.52L1357.46 1654.34V1691.04L1386 1706.86V1741.66L1357.46 1758.11V1792.28L1384.1 1810" stroke="url(#paint41_linear_788_5287)" stroke-opacity="0.3" stroke-width="1.5"/>
<path d="M69.22 1503.29L69.8535 1467.81L41.9787 1451.34L13.4703 1467.81V1503.29L41.9787 1519.76L69.22 1503.29Z" stroke="url(#paint42_linear_788_5287)" stroke-opacity="0.4" stroke-width="1.5"/>
<path d="M154.22 1457.29L154.854 1421.81L126.979 1405.34L98.4703 1421.81V1457.29L126.979 1473.76L154.22 1457.29Z" stroke="url(#paint43_linear_788_5287)" stroke-opacity="0.4" stroke-width="1.5"/>
<path d="M124.779 1503.48L125.412 1468.01L97.5373 1451.54L69.0289 1468.01V1503.48L97.5373 1519.96L124.779 1503.48Z" stroke="url(#paint44_linear_788_5287)" stroke-opacity="0.3" stroke-width="1.5"/>
<path d="M209.779 1457.48L210.412 1422.01L182.537 1405.54L154.029 1422.01V1457.48L182.537 1473.96L209.779 1457.48Z" stroke="url(#paint45_linear_788_5287)" stroke-opacity="0.3" stroke-width="1.5"/>
<path d="M152.654 1555.43L153.287 1519.96L125.412 1503.48L96.9039 1519.96V1555.43L125.412 1571.9L152.654 1555.43Z" stroke="url(#paint46_linear_788_5287)" stroke-opacity="0.3" stroke-width="1.5"/>
<path d="M237.654 1509.43L238.287 1473.96L210.412 1457.48L181.904 1473.96V1509.43L210.412 1525.9L237.654 1509.43Z" stroke="url(#paint47_linear_788_5287)" stroke-opacity="0.3" stroke-width="1.5"/>
<path d="M96.9036 1451.54L97.5371 1416.06L69.6623 1399.59L41.1539 1416.06V1451.54L69.6623 1468.01L96.9036 1451.54Z" stroke="url(#paint48_linear_788_5287)" stroke-opacity="0.3" stroke-width="1.5"/>
<path d="M181.904 1405.54L182.537 1370.06L154.662 1353.59L126.154 1370.06V1405.54L154.662 1422.01L181.904 1405.54Z" stroke="url(#paint49_linear_788_5287)" stroke-opacity="0.3" stroke-width="1.5"/>
<path d="M126.678 1468.01L98.1694 1451.54V1416.06" stroke="url(#paint50_linear_788_5287)" stroke-opacity="0.3" stroke-width="1.5"/>
<path d="M211.678 1422.01L183.169 1405.54V1370.06" stroke="url(#paint51_linear_788_5287)" stroke-opacity="0.3" stroke-width="1.5"/>
<path d="M69.5018 1400L97.4123 1415.82V1452.52L125.957 1468.34V1503.14L97.4123 1519.59V1553.76L124.054 1571.48" stroke="url(#paint52_linear_788_5287)" stroke-opacity="0.5" stroke-width="1.5"/>
<path d="M154.502 1354L182.412 1369.82V1406.52L210.957 1422.34V1457.14L182.412 1473.59V1507.76L209.054 1525.48" stroke="url(#paint53_linear_788_5287)" stroke-opacity="0.5" stroke-width="1.5"/>
<path d="M12.9999 1502.48L40.9103 1518.3V1555L69.4551 1570.82V1605.62L40.9103 1622.07V1656.24L67.5521 1673.96" stroke="url(#paint54_linear_788_5287)" stroke-opacity="0.25" stroke-width="1.5"/>
<path d="M97.9999 1456.48L125.91 1472.3V1509L154.455 1524.82V1559.62L125.91 1576.07V1610.24L152.552 1627.96" stroke="url(#paint55_linear_788_5287)" stroke-opacity="0.25" stroke-width="1.5"/>
<defs>
<linearGradient id="paint0_linear_788_5287" x1="27.5" y1="104" x2="27.5" y2="328" gradientUnits="userSpaceOnUse">
<stop offset="0.015625" stop-color="#FFA000"/>
<stop offset="0.934726" stop-color="#FFA000" stop-opacity="0"/>
</linearGradient>
<linearGradient id="paint1_linear_788_5287" x1="1399.5" y1="959.48" x2="1399.5" y2="1183.48" gradientUnits="userSpaceOnUse">
<stop offset="0.015625" stop-color="#FFA000"/>
<stop offset="0.934726" stop-color="#FFA000" stop-opacity="0"/>
</linearGradient>
<linearGradient id="paint2_linear_788_5287" x1="42.2069" y1="103.857" x2="42.2069" y2="172.277" gradientUnits="userSpaceOnUse">
<stop stop-color="#FF5A23"/>
<stop offset="0.46875" stop-color="#FF3200" stop-opacity="0.53125"/>
<stop offset="0.46885" stop-color="#FF3200" stop-opacity="0.53125"/>
<stop offset="1" stop-color="#FF3200" stop-opacity="0"/>
</linearGradient>
<linearGradient id="paint3_linear_788_5287" x1="1414.21" y1="959.338" x2="1414.21" y2="1027.76" gradientUnits="userSpaceOnUse">
<stop stop-color="#FF5A23"/>
<stop offset="0.46875" stop-color="#FF3200" stop-opacity="0.53125"/>
<stop offset="0.46885" stop-color="#FF3200" stop-opacity="0.53125"/>
<stop offset="1" stop-color="#FF3200" stop-opacity="0"/>
</linearGradient>
<linearGradient id="paint4_linear_788_5287" x1="14.0662" y1="155.805" x2="14.0662" y2="224.225" gradientUnits="userSpaceOnUse">
<stop stop-color="#FF5A23"/>
<stop offset="0.46875" stop-color="#FF3200" stop-opacity="0.53125"/>
<stop offset="0.46885" stop-color="#FF3200" stop-opacity="0.53125"/>
<stop offset="1" stop-color="#FF3200" stop-opacity="0"/>
</linearGradient>
<linearGradient id="paint5_linear_788_5287" x1="1386.07" y1="1011.29" x2="1386.07" y2="1079.71" gradientUnits="userSpaceOnUse">
<stop stop-color="#FF5A23"/>
<stop offset="0.46875" stop-color="#FF3200" stop-opacity="0.53125"/>
<stop offset="0.46885" stop-color="#FF3200" stop-opacity="0.53125"/>
<stop offset="1" stop-color="#FF3200" stop-opacity="0"/>
</linearGradient>
<linearGradient id="paint6_linear_788_5287" x1="97.7654" y1="104.055" x2="97.7654" y2="172.475" gradientUnits="userSpaceOnUse">
<stop stop-color="#FF5A23"/>
<stop offset="0.46875" stop-color="#FF3200" stop-opacity="0.53125"/>
<stop offset="0.46885" stop-color="#FF3200" stop-opacity="0.53125"/>
<stop offset="1" stop-color="#FF3200" stop-opacity="0"/>
</linearGradient>
<linearGradient id="paint7_linear_788_5287" x1="1469.77" y1="959.535" x2="1469.77" y2="1027.96" gradientUnits="userSpaceOnUse">
<stop stop-color="#FF5A23"/>
<stop offset="0.46875" stop-color="#FF3200" stop-opacity="0.53125"/>
<stop offset="0.46885" stop-color="#FF3200" stop-opacity="0.53125"/>
<stop offset="1" stop-color="#FF3200" stop-opacity="0"/>
</linearGradient>
<linearGradient id="paint8_linear_788_5287" x1="125.64" y1="156.004" x2="125.64" y2="224.424" gradientUnits="userSpaceOnUse">
<stop stop-color="#FF5A23"/>
<stop offset="0.46875" stop-color="#FF3200" stop-opacity="0.53125"/>
<stop offset="0.46885" stop-color="#FF3200" stop-opacity="0.53125"/>
<stop offset="1" stop-color="#FF3200" stop-opacity="0"/>
</linearGradient>
<linearGradient id="paint9_linear_788_5287" x1="1497.64" y1="1011.48" x2="1497.64" y2="1079.9" gradientUnits="userSpaceOnUse">
<stop stop-color="#FF5A23"/>
<stop offset="0.46875" stop-color="#FF3200" stop-opacity="0.53125"/>
<stop offset="0.46885" stop-color="#FF3200" stop-opacity="0.53125"/>
<stop offset="1" stop-color="#FF3200" stop-opacity="0"/>
</linearGradient>
<linearGradient id="paint10_linear_788_5287" x1="69.8904" y1="52.1074" x2="69.8904" y2="120.527" gradientUnits="userSpaceOnUse">
<stop stop-color="#FF5A23"/>
<stop offset="0.46875" stop-color="#FF3200" stop-opacity="0.53125"/>
<stop offset="0.46885" stop-color="#FF3200" stop-opacity="0.53125"/>
<stop offset="1" stop-color="#FF3200" stop-opacity="0"/>
</linearGradient>
<linearGradient id="paint11_linear_788_5287" x1="1441.89" y1="625" x2="1441.89" y2="693.42" gradientUnits="userSpaceOnUse">
<stop stop-color="#FF5A23"/>
<stop offset="0.46875" stop-color="#FF3200" stop-opacity="0.53125"/>
<stop offset="0.46885" stop-color="#FF3200" stop-opacity="0.53125"/>
<stop offset="1" stop-color="#FF3200" stop-opacity="0"/>
</linearGradient>
<linearGradient id="paint12_linear_788_5287" x1="126.906" y1="52.1076" x2="126.906" y2="120.528" gradientUnits="userSpaceOnUse">
<stop stop-color="#FF5A23"/>
<stop offset="0.46875" stop-color="#FF3200" stop-opacity="0.53125"/>
<stop offset="0.46885" stop-color="#FF3200" stop-opacity="0.53125"/>
<stop offset="1" stop-color="#FF3200" stop-opacity="0"/>
</linearGradient>
<linearGradient id="paint13_linear_788_5287" x1="1498.91" y1="625" x2="1498.91" y2="693.42" gradientUnits="userSpaceOnUse">
<stop stop-color="#FF5A23"/>
<stop offset="0.46875" stop-color="#FF3200" stop-opacity="0.53125"/>
<stop offset="0.46885" stop-color="#FF3200" stop-opacity="0.53125"/>
<stop offset="1" stop-color="#FF3200" stop-opacity="0"/>
</linearGradient>
<linearGradient id="paint14_linear_788_5287" x1="155.191" y1="105" x2="155.191" y2="173.42" gradientUnits="userSpaceOnUse">
<stop stop-color="#FF5A23"/>
<stop offset="0.46875" stop-color="#FF3200" stop-opacity="0.53125"/>
<stop offset="0.46885" stop-color="#FF3200" stop-opacity="0.53125"/>
<stop offset="1" stop-color="#FF3200" stop-opacity="0"/>
</linearGradient>
<linearGradient id="paint15_linear_788_5287" x1="42.1912" y1="1" x2="42.1912" y2="69.42" gradientUnits="userSpaceOnUse">
<stop stop-color="#FF5A23"/>
<stop offset="0.46875" stop-color="#FF3200" stop-opacity="0.53125"/>
<stop offset="0.46885" stop-color="#FF3200" stop-opacity="0.53125"/>
<stop offset="1" stop-color="#FF3200" stop-opacity="0"/>
</linearGradient>
<linearGradient id="paint16_linear_788_5287" x1="98.1912" y1="1" x2="98.1912" y2="69.42" gradientUnits="userSpaceOnUse">
<stop stop-color="#FF5A23"/>
<stop offset="0.46875" stop-color="#FF3200" stop-opacity="0.53125"/>
<stop offset="0.46885" stop-color="#FF3200" stop-opacity="0.53125"/>
<stop offset="1" stop-color="#FF3200" stop-opacity="0"/>
</linearGradient>
<linearGradient id="paint17_linear_788_5287" x1="13.1912" y1="260" x2="13.1912" y2="328.42" gradientUnits="userSpaceOnUse">
<stop stop-color="#FF5A23"/>
<stop offset="0.46875" stop-color="#FF3200" stop-opacity="0.53125"/>
<stop offset="0.46885" stop-color="#FF3200" stop-opacity="0.53125"/>
<stop offset="1" stop-color="#FF3200" stop-opacity="0"/>
</linearGradient>
<linearGradient id="paint18_linear_788_5287" x1="1385.19" y1="1115.48" x2="1385.19" y2="1183.9" gradientUnits="userSpaceOnUse">
<stop stop-color="#FF5A23"/>
<stop offset="0.46875" stop-color="#FF3200" stop-opacity="0.53125"/>
<stop offset="0.46885" stop-color="#FF3200" stop-opacity="0.53125"/>
<stop offset="1" stop-color="#FF3200" stop-opacity="0"/>
</linearGradient>
<linearGradient id="paint19_linear_788_5287" x1="84.002" y1="-0.000244403" x2="84.002" y2="224" gradientUnits="userSpaceOnUse">
<stop offset="0.015625" stop-color="#FFA000"/>
<stop offset="0.934726" stop-color="#FFA000" stop-opacity="0"/>
</linearGradient>
<linearGradient id="paint20_linear_788_5287" x1="1456" y1="855.48" x2="1456" y2="1079.48" gradientUnits="userSpaceOnUse">
<stop offset="0.015625" stop-color="#FFA000"/>
<stop offset="0.934726" stop-color="#FFA000" stop-opacity="0"/>
</linearGradient>
<linearGradient id="paint21_linear_788_5287" x1="41.9412" y1="207.443" x2="41.9412" y2="275.863" gradientUnits="userSpaceOnUse">
<stop stop-color="#FF5A23"/>
<stop offset="0.46875" stop-color="#FF3200" stop-opacity="0.53125"/>
<stop offset="0.46885" stop-color="#FF3200" stop-opacity="0.53125"/>
<stop offset="1" stop-color="#FF3200" stop-opacity="0"/>
</linearGradient>
<linearGradient id="paint22_linear_788_5287" x1="1413.94" y1="1062.92" x2="1413.94" y2="1131.34" gradientUnits="userSpaceOnUse">
<stop stop-color="#FF5A23"/>
<stop offset="0.46875" stop-color="#FF3200" stop-opacity="0.53125"/>
<stop offset="0.46885" stop-color="#FF3200" stop-opacity="0.53125"/>
<stop offset="1" stop-color="#FF3200" stop-opacity="0"/>
</linearGradient>
<linearGradient id="paint23_linear_788_5287" x1="69.8143" y1="259.393" x2="69.8143" y2="327.813" gradientUnits="userSpaceOnUse">
<stop stop-color="#FF5A23"/>
<stop offset="0.46875" stop-color="#FF3200" stop-opacity="0.53125"/>
<stop offset="0.46885" stop-color="#FF3200" stop-opacity="0.53125"/>
<stop offset="1" stop-color="#FF3200" stop-opacity="0"/>
</linearGradient>
<linearGradient id="paint24_linear_788_5287" x1="1441.81" y1="1114.87" x2="1441.81" y2="1183.29" gradientUnits="userSpaceOnUse">
<stop stop-color="#FF5A23"/>
<stop offset="0.46875" stop-color="#FF3200" stop-opacity="0.53125"/>
<stop offset="0.46885" stop-color="#FF3200" stop-opacity="0.53125"/>
<stop offset="1" stop-color="#FF3200" stop-opacity="0"/>
</linearGradient>
<linearGradient id="paint25_linear_788_5287" x1="55.5" y1="260.48" x2="55.5" y2="484.48" gradientUnits="userSpaceOnUse">
<stop offset="0.015625" stop-color="#FFA000"/>
<stop offset="0.934726" stop-color="#FFA000" stop-opacity="0"/>
</linearGradient>
<linearGradient id="paint26_linear_788_5287" x1="1427.5" y1="1115.96" x2="1427.5" y2="1339.96" gradientUnits="userSpaceOnUse">
<stop offset="0.015625" stop-color="#FFA000"/>
<stop offset="0.934726" stop-color="#FFA000" stop-opacity="0"/>
</linearGradient>
<linearGradient id="paint27_linear_788_5287" x1="27.5" y1="102.48" x2="27.5" y2="326.48" gradientUnits="userSpaceOnUse">
<stop offset="0.015625" stop-color="#FFA000"/>
<stop offset="0.934726" stop-color="#FFA000" stop-opacity="0"/>
</linearGradient>
<linearGradient id="paint28_linear_788_5287" x1="1399.5" y1="957.961" x2="1399.5" y2="1181.96" gradientUnits="userSpaceOnUse">
<stop offset="0.015625" stop-color="#FFA000"/>
<stop offset="0.934726" stop-color="#FFA000" stop-opacity="0"/>
</linearGradient>
<linearGradient id="paint29_linear_788_5287" x1="27.998" y1="208" x2="27.998" y2="432" gradientUnits="userSpaceOnUse">
<stop offset="0.015625" stop-color="#FFA000"/>
<stop offset="0.934726" stop-color="#FFA000" stop-opacity="0"/>
</linearGradient>
<linearGradient id="paint30_linear_788_5287" x1="1400" y1="1063.48" x2="1400" y2="1287.48" gradientUnits="userSpaceOnUse">
<stop offset="0.015625" stop-color="#FFA000"/>
<stop offset="0.934726" stop-color="#FFA000" stop-opacity="0"/>
</linearGradient>
<linearGradient id="paint31_linear_788_5287" x1="1428.89" y1="2341.59" x2="1428.89" y2="2410.01" gradientUnits="userSpaceOnUse">
<stop stop-color="#FF5A23"/>
<stop offset="0.46875" stop-color="#FF3200" stop-opacity="0.53125"/>
<stop offset="0.46885" stop-color="#FF3200" stop-opacity="0.53125"/>
<stop offset="1" stop-color="#FF3200" stop-opacity="0"/>
</linearGradient>
<linearGradient id="paint32_linear_788_5287" x1="42.1912" y1="2341.59" x2="42.1912" y2="2410.01" gradientUnits="userSpaceOnUse">
<stop stop-color="#FF5A23"/>
<stop offset="0.46875" stop-color="#FF3200" stop-opacity="0.53125"/>
<stop offset="0.46885" stop-color="#FF3200" stop-opacity="0.53125"/>
<stop offset="1" stop-color="#FF3200" stop-opacity="0"/>
</linearGradient>
<linearGradient id="paint33_linear_788_5287" x1="1443" y1="2289.48" x2="1443" y2="2513.48" gradientUnits="userSpaceOnUse">
<stop offset="0.015625" stop-color="#FFA000"/>
<stop offset="0.934726" stop-color="#FFA000" stop-opacity="0"/>
</linearGradient>
<linearGradient id="paint34_linear_788_5287" x1="56.3027" y1="2289.48" x2="56.3027" y2="2513.48" gradientUnits="userSpaceOnUse">
<stop offset="0.015625" stop-color="#FFA000"/>
<stop offset="0.934726" stop-color="#FFA000" stop-opacity="0"/>
</linearGradient>
<linearGradient id="paint35_linear_788_5287" x1="1357.19" y1="1448" x2="1357.19" y2="1516.42" gradientUnits="userSpaceOnUse">
<stop stop-color="#FF5A23"/>
<stop offset="0.46875" stop-color="#FF3200" stop-opacity="0.53125"/>
<stop offset="0.46885" stop-color="#FF3200" stop-opacity="0.53125"/>
<stop offset="1" stop-color="#FF3200" stop-opacity="0"/>
</linearGradient>
<linearGradient id="paint36_linear_788_5287" x1="1442.19" y1="1747.52" x2="1442.19" y2="1815.94" gradientUnits="userSpaceOnUse">
<stop stop-color="#FF5A23"/>
<stop offset="0.46875" stop-color="#FF3200" stop-opacity="0.53125"/>
<stop offset="0.46885" stop-color="#FF3200" stop-opacity="0.53125"/>
<stop offset="1" stop-color="#FF3200" stop-opacity="0"/>
</linearGradient>
<linearGradient id="paint37_linear_788_5287" x1="1385.19" y1="1851.59" x2="1385.19" y2="1920.01" gradientUnits="userSpaceOnUse">
<stop stop-color="#FF5A23"/>
<stop offset="0.46875" stop-color="#FF3200" stop-opacity="0.53125"/>
<stop offset="0.46885" stop-color="#FF3200" stop-opacity="0.53125"/>
<stop offset="1" stop-color="#FF3200" stop-opacity="0"/>
</linearGradient>
<linearGradient id="paint38_linear_788_5287" x1="1428.5" y1="1643.07" x2="1428.5" y2="1867.07" gradientUnits="userSpaceOnUse">
<stop offset="0.015625" stop-color="#FFA000"/>
<stop offset="0.934726" stop-color="#FFA000" stop-opacity="0"/>
</linearGradient>
<linearGradient id="paint39_linear_788_5287" x1="1443.19" y1="1945.59" x2="1443.19" y2="2014.01" gradientUnits="userSpaceOnUse">
<stop stop-color="#FF5A23"/>
<stop offset="0.46875" stop-color="#FF3200" stop-opacity="0.53125"/>
<stop offset="0.46885" stop-color="#FF3200" stop-opacity="0.53125"/>
<stop offset="1" stop-color="#FF3200" stop-opacity="0"/>
</linearGradient>
<linearGradient id="paint40_linear_788_5287" x1="1329.31" y1="1638" x2="1329.31" y2="1706.42" gradientUnits="userSpaceOnUse">
<stop stop-color="#FF5A23"/>
<stop offset="0.46875" stop-color="#FF3200" stop-opacity="0.53125"/>
<stop offset="0.46885" stop-color="#FF3200" stop-opacity="0.53125"/>
<stop offset="1" stop-color="#FF3200" stop-opacity="0"/>
</linearGradient>
<linearGradient id="paint41_linear_788_5287" x1="1343.5" y1="1586" x2="1343.5" y2="1810" gradientUnits="userSpaceOnUse">
<stop offset="0.015625" stop-color="#FFA000"/>
<stop offset="0.934726" stop-color="#FFA000" stop-opacity="0"/>
</linearGradient>
<linearGradient id="paint42_linear_788_5287" x1="41.6619" y1="1451.34" x2="41.6619" y2="1519.76" gradientUnits="userSpaceOnUse">
<stop stop-color="#FF5A23"/>
<stop offset="0.46875" stop-color="#FF3200" stop-opacity="0.53125"/>
<stop offset="0.46885" stop-color="#FF3200" stop-opacity="0.53125"/>
<stop offset="1" stop-color="#FF3200" stop-opacity="0"/>
</linearGradient>
<linearGradient id="paint43_linear_788_5287" x1="126.662" y1="1405.34" x2="126.662" y2="1473.76" gradientUnits="userSpaceOnUse">
<stop stop-color="#FF5A23"/>
<stop offset="0.46875" stop-color="#FF3200" stop-opacity="0.53125"/>
<stop offset="0.46885" stop-color="#FF3200" stop-opacity="0.53125"/>
<stop offset="1" stop-color="#FF3200" stop-opacity="0"/>
</linearGradient>
<linearGradient id="paint44_linear_788_5287" x1="97.2205" y1="1451.54" x2="97.2205" y2="1519.96" gradientUnits="userSpaceOnUse">
<stop stop-color="#FF5A23"/>
<stop offset="0.46875" stop-color="#FF3200" stop-opacity="0.53125"/>
<stop offset="0.46885" stop-color="#FF3200" stop-opacity="0.53125"/>
<stop offset="1" stop-color="#FF3200" stop-opacity="0"/>
</linearGradient>
<linearGradient id="paint45_linear_788_5287" x1="182.221" y1="1405.54" x2="182.221" y2="1473.96" gradientUnits="userSpaceOnUse">
<stop stop-color="#FF5A23"/>
<stop offset="0.46875" stop-color="#FF3200" stop-opacity="0.53125"/>
<stop offset="0.46885" stop-color="#FF3200" stop-opacity="0.53125"/>
<stop offset="1" stop-color="#FF3200" stop-opacity="0"/>
</linearGradient>
<linearGradient id="paint46_linear_788_5287" x1="125.096" y1="1503.48" x2="125.096" y2="1571.9" gradientUnits="userSpaceOnUse">
<stop stop-color="#FF5A23"/>
<stop offset="0.46875" stop-color="#FF3200" stop-opacity="0.53125"/>
<stop offset="0.46885" stop-color="#FF3200" stop-opacity="0.53125"/>
<stop offset="1" stop-color="#FF3200" stop-opacity="0"/>
</linearGradient>
<linearGradient id="paint47_linear_788_5287" x1="210.096" y1="1457.48" x2="210.096" y2="1525.9" gradientUnits="userSpaceOnUse">
<stop stop-color="#FF5A23"/>
<stop offset="0.46875" stop-color="#FF3200" stop-opacity="0.53125"/>
<stop offset="0.46885" stop-color="#FF3200" stop-opacity="0.53125"/>
<stop offset="1" stop-color="#FF3200" stop-opacity="0"/>
</linearGradient>
<linearGradient id="paint48_linear_788_5287" x1="69.3455" y1="1399.59" x2="69.3455" y2="1468.01" gradientUnits="userSpaceOnUse">
<stop stop-color="#FF5A23"/>
<stop offset="0.46875" stop-color="#FF3200" stop-opacity="0.53125"/>
<stop offset="0.46885" stop-color="#FF3200" stop-opacity="0.53125"/>
<stop offset="1" stop-color="#FF3200" stop-opacity="0"/>
</linearGradient>
<linearGradient id="paint49_linear_788_5287" x1="154.346" y1="1353.59" x2="154.346" y2="1422.01" gradientUnits="userSpaceOnUse">
<stop stop-color="#FF5A23"/>
<stop offset="0.46875" stop-color="#FF3200" stop-opacity="0.53125"/>
<stop offset="0.46885" stop-color="#FF3200" stop-opacity="0.53125"/>
<stop offset="1" stop-color="#FF3200" stop-opacity="0"/>
</linearGradient>
<linearGradient id="paint50_linear_788_5287" x1="126.361" y1="1399.59" x2="126.361" y2="1468.01" gradientUnits="userSpaceOnUse">
<stop stop-color="#FF5A23"/>
<stop offset="0.46875" stop-color="#FF3200" stop-opacity="0.53125"/>
<stop offset="0.46885" stop-color="#FF3200" stop-opacity="0.53125"/>
<stop offset="1" stop-color="#FF3200" stop-opacity="0"/>
</linearGradient>
<linearGradient id="paint51_linear_788_5287" x1="211.361" y1="1353.59" x2="211.361" y2="1422.01" gradientUnits="userSpaceOnUse">
<stop stop-color="#FF5A23"/>
<stop offset="0.46875" stop-color="#FF3200" stop-opacity="0.53125"/>
<stop offset="0.46885" stop-color="#FF3200" stop-opacity="0.53125"/>
<stop offset="1" stop-color="#FF3200" stop-opacity="0"/>
</linearGradient>
<linearGradient id="paint52_linear_788_5287" x1="83.457" y1="1347.48" x2="83.457" y2="1571.48" gradientUnits="userSpaceOnUse">
<stop offset="0.015625" stop-color="#FFA000"/>
<stop offset="0.934726" stop-color="#FFA000" stop-opacity="0"/>
</linearGradient>
<linearGradient id="paint53_linear_788_5287" x1="168.457" y1="1301.48" x2="168.457" y2="1525.48" gradientUnits="userSpaceOnUse">
<stop offset="0.015625" stop-color="#FFA000"/>
<stop offset="0.934726" stop-color="#FFA000" stop-opacity="0"/>
</linearGradient>
<linearGradient id="paint54_linear_788_5287" x1="26.9551" y1="1449.96" x2="26.9551" y2="1673.96" gradientUnits="userSpaceOnUse">
<stop offset="0.015625" stop-color="#FFA000"/>
<stop offset="0.934726" stop-color="#FFA000" stop-opacity="0"/>
</linearGradient>
<linearGradient id="paint55_linear_788_5287" x1="111.955" y1="1403.96" x2="111.955" y2="1627.96" gradientUnits="userSpaceOnUse">
<stop offset="0.015625" stop-color="#FFA000"/>
<stop offset="0.934726" stop-color="#FFA000" stop-opacity="0"/>
</linearGradient>
</defs>
</svg>
