<svg width="19" height="28" viewBox="0 0 19 28" fill="none" xmlns="http://www.w3.org/2000/svg">
<path d="M15.2034 7.89837C15.2034 7.82245 15.2648 7.75778 15.3401 7.75778H18.866C18.9414 7.75778 19 7.82526 19 7.90118V23.7264C19 25.8494 17.3027 27.5758 15.2034 27.5758H3.80223C1.70012 27.5758 0 25.855 0 23.7264H15.2034V7.89837ZM3.80223 0.601562C1.70012 0.601562 0 2.32805 0 4.45664V20.2819C0 20.3578 0.064208 20.4224 0.139583 20.4224H3.66265C3.73802 20.4224 3.80223 20.3578 3.80223 20.2819V4.45664H19C19 2.32805 17.3027 0.601562 15.2034 0.601562H3.80223Z" fill="black"/>
</svg>
