<svg width="232" height="168" viewBox="0 0 232 168" fill="none" xmlns="http://www.w3.org/2000/svg">
<g clip-path="url(#clip0_251_2384)">
<mask id="mask0_251_2384" style="mask-type:alpha" maskUnits="userSpaceOnUse" x="0" y="0" width="232" height="168">
<path d="M231.905 0H0V168H231.905V0Z" fill="white"/>
</mask>
<g mask="url(#mask0_251_2384)">
<path d="M231.907 17.4316V17.6175C231.741 17.7578 231.86 17.9786 231.772 18.1413C231.765 18.1543 231.757 18.1668 231.747 18.1789C230.936 21.8963 230.129 25.6145 229.312 29.3305C228.196 34.4059 227.072 39.4795 225.952 44.554C225.885 44.8562 225.823 45.1597 225.748 45.4594C225.664 45.7922 225.588 45.8624 225.226 45.842C223.989 45.7722 222.753 45.6867 221.517 45.6082C220.034 45.5143 218.551 45.4171 217.067 45.3302C216.047 45.2703 215.026 45.2243 214.006 45.1731C213.758 45.1611 213.51 45.1573 213.263 45.1411C213.006 45.1243 212.856 45.241 212.797 45.4869C212.698 45.908 212.6 46.3304 212.498 46.7511C212.096 48.4043 211.691 50.0571 211.291 51.7108C211.233 51.9488 211.193 52.1914 211.129 52.5028C211.861 52.5655 212.56 52.6339 213.26 52.6841C215.299 52.8291 217.338 52.9676 219.377 53.1084C219.5 53.1172 219.624 53.1233 219.747 53.1381C219.929 53.16 220.029 53.2683 219.995 53.4486C219.944 53.7214 219.874 53.9915 219.803 54.2601C219.178 56.6226 218.551 58.9851 217.925 61.3472C217.917 61.3769 217.908 61.4067 217.9 61.4369C217.716 62.0815 217.715 62.0936 216.997 62.0388C216.04 61.9653 215.085 61.8677 214.129 61.7873C212.555 61.6544 210.982 61.5242 209.408 61.3983C209.01 61.3667 208.955 61.4085 208.85 61.8357C208.481 63.3378 208.106 64.8386 207.762 66.3464C207.653 66.8219 207.443 67.2815 207.483 67.7863C207.92 68.0903 208.431 67.962 208.908 68.015C211.154 68.2659 213.403 68.4904 215.649 68.7358C216.665 68.8465 217.677 68.9817 218.691 69.1091C219.176 69.1699 219.229 69.2397 219.084 69.6975C218.56 71.3484 218.025 72.9965 217.499 74.6474C215.224 81.7805 212.95 88.914 210.676 96.047C210.563 96.4007 210.443 96.7521 210.33 97.1058C210.263 97.3196 210.113 97.4005 209.906 97.3619C209.115 97.2155 208.324 97.064 207.535 96.9106C204.587 96.3375 201.626 95.8537 198.651 95.4447C195.154 94.9641 191.646 94.5904 188.124 94.3413C188.032 94.3348 187.938 94.3301 187.847 94.3115C187.712 94.2836 187.618 94.1893 187.628 94.0559C187.646 93.8096 187.682 93.5632 187.731 93.3211C188.939 87.3481 190.151 81.3757 191.361 75.4027C192.086 71.8253 192.812 68.2478 193.533 64.6694C194.682 58.9679 195.822 53.265 196.973 47.564C198.118 41.8936 199.273 36.2256 200.421 30.5557C201.249 26.4628 202.074 22.369 202.898 18.2747C203.134 17.0978 203.041 17.2698 204.128 17.2703C210.665 17.2726 217.201 17.2545 223.738 17.3079C226.184 17.3284 228.631 17.3298 231.077 17.3567C231.354 17.36 231.63 17.4055 231.907 17.4316Z" fill="white"/>
<path d="M116.892 102.255C116.847 101.949 116.849 101.637 116.824 101.329C116.681 99.508 116.54 97.6869 116.391 95.8668C116.232 93.9231 116.062 91.9803 115.901 90.037C115.752 88.2476 115.613 86.4577 115.463 84.6688C115.292 82.633 115.112 80.5982 114.936 78.5629C114.802 77.0208 114.672 75.4786 114.533 73.9374C114.37 72.1187 114.196 70.3009 114.031 68.4822C113.88 66.8174 113.74 65.1516 113.586 63.4872C113.43 61.7921 113.262 60.0984 113.101 58.4038C112.949 56.8013 112.804 55.1982 112.65 53.5956C112.429 51.2852 112.202 48.9752 111.978 46.6648C111.838 45.217 111.701 43.7687 111.557 42.3209C111.391 40.6579 111.219 38.9954 111.051 37.3328C110.905 35.885 110.767 34.4368 110.615 32.9899C110.339 30.3429 110.052 27.6965 109.774 25.0495C109.564 23.0486 109.361 21.0473 109.151 19.0464C109.106 18.6155 109.056 18.1851 108.997 17.7557C108.973 17.5837 108.855 17.4898 108.681 17.4773C108.588 17.4707 108.495 17.4684 108.402 17.4717C106.204 17.5498 104.005 17.4698 101.806 17.5433C99.5465 17.6185 97.283 17.5804 95.0213 17.586C91.2105 17.5958 87.3992 17.5995 83.5884 17.6083C82.6067 17.6106 82.5993 17.5028 82.6309 18.5411C82.7397 22.0991 82.8354 25.6575 82.933 29.2154C82.9944 31.4431 83.0427 33.6713 83.1106 35.899C83.2337 39.9524 83.3657 44.0053 83.4959 48.0587C83.6395 52.5136 83.7734 56.969 83.9337 61.4235C84.0797 65.476 84.253 69.527 84.4194 73.5781C84.5407 76.5472 84.6704 79.5162 84.7954 82.4852C84.9456 86.0418 85.0859 89.5992 85.2458 93.1553C85.4229 97.0822 85.6167 101.009 85.8036 104.936C86.0894 105.479 85.9212 106.051 85.9504 106.742C85.6414 106.43 85.5428 106.177 85.6046 105.859C84.6797 102.327 83.7669 98.7926 82.8275 95.2649C81.4582 90.1221 80.0718 84.9839 78.6895 79.8443C78.3678 78.6494 78.0374 77.4567 77.7023 76.2655C77.5958 75.8867 77.5163 75.8314 77.1989 75.8579C75.5944 75.9913 73.9904 76.1363 72.385 76.2604C71.1808 76.3538 69.9751 76.4277 68.769 76.497C68.3981 76.5183 68.3358 76.4658 68.2786 76.1056C68.1517 75.3113 68.0388 74.5146 67.9286 73.718C67.8845 73.3973 67.9258 73.2198 68.3516 73.144C68.5333 73.1119 68.7076 73.0399 68.8852 72.985C72.3274 71.9193 74.9488 69.8324 76.7248 66.6928C77.8026 64.7862 78.464 62.7324 78.8963 60.5967C79.389 58.1603 79.5568 55.6923 79.6028 53.2127C79.6284 51.8183 79.5517 50.4277 79.4819 49.0361C79.4094 47.5823 79.2997 46.1335 79.1208 44.6885C78.6579 40.9503 77.7357 37.3328 76.2749 33.8595C74.6607 30.0232 72.4984 26.5475 69.4517 23.6677C65.7627 20.1809 61.3946 18.2056 56.3297 17.7659C55.3397 17.6799 54.3516 17.6678 53.3602 17.6687C48.1238 17.6748 42.887 17.6715 37.6507 17.6725C37.3723 17.6725 37.0925 17.6715 36.8155 17.6966C36.689 17.7082 36.5891 17.8128 36.6077 17.9551C36.6523 18.2925 36.7048 18.629 36.7681 18.9636C37.0427 20.4231 37.3286 21.8806 37.5996 23.3405C38.4971 28.178 39.3862 33.0168 40.2861 37.8534C41.0558 41.9904 41.8408 46.1247 42.6105 50.2617C43.5164 55.1285 44.4106 59.998 45.3146 64.8653C46.1568 69.3978 47.007 73.929 47.8505 78.4616C48.4901 81.8987 49.1227 85.3376 49.7641 88.7747C50.4789 92.6068 51.2045 96.4371 51.9179 100.27C52.7443 104.711 53.554 109.156 54.3916 113.595C54.5663 114.522 54.4366 114.441 55.4564 114.454C59.5173 114.506 63.5703 114.33 67.6186 114.03C68.5988 113.958 68.5993 113.964 68.3836 112.981C67.5414 109.143 66.7076 105.303 65.8547 101.468C64.5854 95.7599 63.3021 90.0552 62.0262 84.3486C61.7701 83.2038 61.5219 82.0576 61.2733 80.9268C61.5675 80.733 61.8561 80.8013 62.128 80.7911C62.5087 80.7767 62.5654 80.8227 62.6811 81.1494C62.7638 81.3828 62.8298 81.6217 62.9028 81.8582C65.8319 91.3491 68.7243 100.851 71.5196 110.383C71.7896 111.303 72.0639 112.222 72.3479 113.138C72.4733 113.543 72.5082 113.557 72.947 113.535C73.2565 113.519 73.5661 113.501 73.8738 113.468C76.3674 113.201 78.861 112.925 81.3365 112.524C85.2774 111.886 89.2091 111.191 93.1041 110.311C95.1259 109.855 97.131 109.324 99.1417 108.819C99.6218 108.698 99.6613 108.623 99.6372 108.195C99.4257 104.424 99.2147 100.654 99.0032 96.8829C98.9511 95.9556 98.8958 95.0288 98.8461 94.1016C98.828 93.7614 98.8191 93.4211 98.8094 93.0805C98.8033 92.8653 98.9056 92.7393 99.1213 92.6924C100.207 92.4581 101.292 92.2197 102.444 91.9678C102.679 93.7288 102.747 95.4536 102.886 97.1715C103.023 98.8684 103.139 100.567 103.27 102.265C103.402 103.988 103.54 105.712 103.682 107.513C104.039 107.422 104.335 107.357 104.625 107.272C106.913 106.603 109.17 105.84 111.422 105.06C112.972 104.523 114.526 104 116.073 103.456C116.914 103.16 117.05 103.348 116.892 102.255ZM65.3007 61.8623C65.1761 62.2778 65.0153 62.6798 64.7676 63.041C64.1908 63.8818 63.402 64.3782 62.3785 64.4465C61.8552 64.4818 61.3272 64.4697 60.802 64.4516C60.3479 64.4358 60.3009 64.3954 60.2182 63.9046C60.0532 62.9294 59.9105 61.9506 59.7594 60.9736C59.3523 58.3476 58.9447 55.722 58.5398 53.0955C58.3706 51.9963 58.1996 50.8971 58.0476 49.7951C57.9849 49.341 58.0671 49.2397 58.524 49.2071C59.138 49.1639 59.7455 49.0761 60.372 49.1435C61.514 49.2671 62.4194 49.7858 63.1719 50.6219C63.9337 51.4679 64.392 52.4797 64.7355 53.5445C65.3276 55.3823 65.5633 57.2805 65.6321 59.2042C65.6195 60.1026 65.56 60.9955 65.3007 61.8623ZM101.352 81.3521C100.59 81.4887 99.8305 81.6347 99.0687 81.769C98.8326 81.8104 98.5988 81.9507 98.3176 81.7932C98.2981 81.6333 98.2651 81.4525 98.2549 81.2698C98.1982 80.2194 98.1443 79.1685 98.0931 78.1172C97.9421 75.0264 97.7952 71.9351 97.6427 68.8438C97.4536 65.0112 97.2607 61.1786 97.0692 57.346C96.9474 54.904 96.8261 52.4625 96.7015 50.0205C96.6216 48.4444 96.5365 46.8684 96.4533 45.2923C96.4264 44.7819 96.4426 44.748 96.9153 44.6894C97.3453 44.6369 97.778 44.5965 98.2103 44.5751C98.708 44.5505 98.748 44.5932 98.7922 45.0599C98.8391 45.553 98.8856 46.0457 98.9251 46.5393C99.0678 48.3287 99.2049 50.1181 99.349 51.9071C99.5131 53.9428 99.6841 55.9781 99.8486 58.0139C99.9927 59.8033 100.13 61.5927 100.274 63.3821C100.434 65.3872 100.599 67.3918 100.761 69.3964C100.901 71.1547 101.043 72.9135 101.177 74.6722C101.329 76.6471 101.474 78.6224 101.622 80.5973C101.632 80.7209 101.65 80.8436 101.657 80.9672C101.67 81.1843 101.573 81.3121 101.352 81.3521Z" fill="white"/>
<path d="M85.9512 106.742C85.6421 106.429 85.5436 106.177 85.6054 105.859C85.7304 105.984 85.7672 106.138 85.782 106.253C85.7727 105.882 85.9921 105.407 85.8043 104.936C86.0902 105.478 85.9219 106.051 85.9512 106.742Z" fill="white"/>
<path d="M46.3171 97.8417C46.2032 100.782 45.9555 103.711 45.2578 106.583C44.8985 108.062 44.4254 109.498 43.724 110.853C43.2234 111.821 42.6164 112.716 41.8207 113.471C40.5295 114.695 38.9933 115.334 37.2113 115.376C35.123 115.425 33.1653 114.892 31.288 114.027C29.0087 112.976 27.0603 111.46 25.2969 109.694C22.8065 107.201 20.7977 104.344 19.0092 101.323C16.7642 97.5307 14.9306 93.5392 13.2913 89.4556C11.1333 84.0799 9.34383 78.5773 7.75284 73.012C6.27341 67.8357 4.84 62.6464 3.51673 57.4278C2.42819 53.1359 1.51441 48.8074 0.860914 44.4277C0.298051 40.6579 -0.0449647 36.8694 0.00476796 33.0503C0.0405569 30.3155 0.283178 27.6109 1.00593 24.9649C1.49071 23.1908 2.19208 21.5115 3.28201 20.0145C4.95155 17.7208 7.20346 16.3845 9.99546 15.9169C10.9488 15.7575 11.9044 15.7278 12.8656 15.7375C13.1398 15.7403 13.4145 15.738 13.6817 15.738C13.7872 15.5233 13.619 15.4461 13.5172 15.3504C12.9092 14.7754 12.3157 14.1898 11.7993 13.5266C10.1958 11.4666 9.61433 9.12784 9.84115 6.55386C9.96711 5.12465 10.2813 3.74331 10.8042 2.40892C10.9492 2.03802 11.025 2.00037 11.342 2.17467C13.4633 3.34313 15.2936 4.8416 16.5969 6.91221C17.4382 8.248 17.9025 9.71068 17.9471 11.2961C17.9541 11.5405 17.948 11.7855 17.948 12.0155C18.153 12.0829 18.213 11.9737 18.2576 11.8571C18.5681 11.0469 18.9376 10.2642 19.3387 9.49502C21.4303 5.48625 24.6211 2.76634 28.9092 1.33294C30.886 0.672019 32.9125 0.256037 34.9943 0.126362C35.7979 0.0766305 36.6015 0.0371238 37.4056 0.00272979C37.5897 -0.00517155 37.7779 0.0143494 37.9597 0.0468843C38.0903 0.0701235 38.1669 0.177024 38.1665 0.31367C38.166 0.436838 38.1553 0.5614 38.1339 0.683174C37.6626 3.38589 36.8153 5.95848 35.5042 8.37814C33.2597 12.5194 29.8328 15.1672 25.3452 16.5077C23.8263 16.9618 22.2725 17.2207 20.7103 17.4507C20.6545 17.4414 20.5955 17.4168 20.543 17.4261C20.464 17.44 20.3891 17.4782 20.3124 17.5056C20.3673 17.5674 20.4128 17.6427 20.4793 17.6868C20.5472 17.7319 20.635 17.7459 20.7145 17.7738C24.7489 20.0108 27.7352 23.3131 30.2227 27.1215C32.3306 30.3485 33.9894 33.8037 35.4182 37.3751C37.1453 41.692 38.5049 46.1261 39.6682 50.6233C40.9167 55.4487 41.9174 60.3275 42.8279 65.2254C43.3089 67.811 43.8039 70.3948 44.2274 72.9897C44.621 75.4014 44.951 77.8243 45.2662 80.2482C45.5172 82.1812 45.7142 84.1217 45.9132 86.0608C46.014 87.0461 46.0805 88.0352 46.1381 89.0238C46.3096 91.9608 46.4305 94.9001 46.3171 97.8417Z" fill="white"/>
<path d="M20.7145 17.774C20.6351 17.7461 20.5472 17.7322 20.4794 17.6871C20.4129 17.643 20.3673 17.5677 20.3125 17.5059C20.3892 17.4784 20.464 17.4403 20.543 17.4264C20.5956 17.4171 20.6546 17.4417 20.7104 17.451C20.4942 17.5612 20.5872 17.6676 20.7145 17.774Z" fill="white"/>
<path d="M155.429 18.273C155.256 20.246 155.088 22.22 154.916 24.1934C154.76 25.9819 154.598 27.7695 154.444 29.558C154.298 31.2544 154.159 32.9514 154.015 34.6474C153.846 36.6213 153.673 38.5948 153.505 40.5687C153.36 42.2652 153.222 43.9621 153.076 45.6586C152.85 48.2795 152.618 50.9004 152.392 53.5213C152.249 55.1871 152.117 56.8534 151.975 58.5187C151.804 60.5233 151.625 62.527 151.454 64.5316C151.311 66.1974 151.177 67.8632 151.035 69.529C150.872 71.4411 150.704 73.3527 150.541 75.2649C150.393 76.992 150.252 78.7201 150.104 80.4472C149.946 82.2975 149.78 84.1474 149.623 85.9977C149.467 87.8178 149.32 89.6379 149.165 91.458C149.06 92.6915 148.946 93.9241 148.84 95.1576C148.802 95.6034 148.838 95.6954 148.231 95.7953C147.375 95.9352 146.517 96.0584 145.659 96.1806C142.686 96.6041 139.74 97.1785 136.806 97.8195C136.504 97.8855 136.202 97.9538 135.899 98.0147C135.533 98.0876 135.436 98.0272 135.403 97.6819C135.278 96.3568 135.161 95.0308 135.04 93.7052C134.817 91.2702 134.594 88.8352 134.369 86.4002C134.224 84.8283 134.08 83.2564 133.926 81.6854C133.703 79.4061 133.472 77.1273 133.244 74.848C133.102 73.4313 132.966 72.0142 132.819 70.598C132.596 68.4432 132.365 66.289 132.137 64.1347C131.928 62.1649 131.717 60.1952 131.507 58.2254C131.484 58.0098 131.474 57.7927 131.441 57.5789C131.395 57.2703 131.31 57.2001 131.024 57.202C130.962 57.202 130.9 57.2071 130.838 57.2113C130.054 57.2624 130.008 57.2991 130.048 58.0943C130.2 61.2172 130.364 64.3392 130.517 67.4621C130.597 69.1004 130.668 70.7397 130.737 72.379C130.827 74.5133 130.911 76.6476 131.001 78.7819C131.161 82.5546 131.327 86.3272 131.483 90.1003C131.596 92.8221 131.697 95.5439 131.803 98.2652C131.805 98.3275 131.807 98.3893 131.807 98.4511C131.804 98.8564 131.763 98.9266 131.371 99.0321C130.774 99.1929 130.173 99.344 129.572 99.4871C126.077 100.319 122.634 101.333 119.215 102.429C117.997 102.819 118.112 102.931 118.097 101.614C118.05 97.4974 117.991 93.3803 117.944 89.2632C117.92 87.1889 117.919 85.1141 117.896 83.0398C117.848 78.675 117.79 74.3102 117.739 69.9459C117.716 67.8716 117.696 65.7967 117.683 63.7224C117.674 62.4847 117.681 61.2465 117.681 60.0088H117.617C117.581 55.3024 117.588 50.5955 117.496 45.89C117.407 41.3087 117.403 36.7268 117.352 32.145C117.301 27.5636 117.245 22.9818 117.196 18.3999C117.185 17.4002 117.071 17.4485 118.135 17.4462C122.659 17.4346 127.183 17.4206 131.706 17.4062C132.202 17.4048 132.698 17.3844 133.193 17.3904C133.636 17.3955 133.686 17.4425 133.739 17.8408C133.856 18.7308 133.972 19.6209 134.078 20.5119C134.388 23.124 134.7 25.7361 134.998 28.3495C135.278 30.8096 135.54 33.2721 135.813 35.7326C136.094 38.255 136.386 40.776 136.659 43.2989C136.875 45.2988 137.071 47.3011 137.276 49.3025C137.501 51.4884 137.729 53.6738 137.953 55.8601C138.041 56.7223 138.117 57.5859 138.206 58.448C138.231 58.6921 138.332 58.7641 138.573 58.7567C139.591 58.7246 139.593 58.7241 139.567 57.7346C139.469 54.0521 139.379 50.3692 139.269 46.6871C139.159 43.0051 139.036 39.3231 138.907 35.642C138.791 32.3007 138.662 28.9603 138.532 25.6199C138.445 23.3931 138.345 21.1668 138.252 18.9405C138.237 18.6002 138.217 18.26 138.214 17.9193C138.211 17.4471 138.257 17.3932 138.75 17.3899C141.074 17.3732 143.398 17.3676 145.721 17.3532C148.664 17.3356 151.606 17.3132 154.549 17.2928C155.535 17.2863 155.519 17.25 155.429 18.273Z" fill="white"/>
<path d="M194.211 40.0535C194.152 43.0286 193.851 45.9846 193.549 48.9406C193.46 49.8237 193.439 49.8079 192.548 49.9436C190.315 50.2848 188.082 50.6278 185.852 50.9917C183.439 51.3863 181.03 51.806 178.62 52.2141C178.498 52.2346 178.377 52.2573 178.255 52.2624C178.148 52.2671 178.081 52.1848 178.073 52.0928C178.062 51.972 178.085 51.8479 178.098 51.7256C178.261 50.1853 178.384 48.6432 178.333 47.0922C178.304 46.2226 178.192 45.3646 177.969 44.5233C177.858 44.1018 177.69 43.7025 177.439 43.3432C176.838 42.482 175.93 42.1724 174.912 42.4541C174.452 42.581 174.056 42.8064 173.703 43.1187C173.138 43.6184 172.718 44.2268 172.366 44.8872C171.838 45.8758 171.469 46.9281 171.158 47.9981C170.527 50.1723 170.135 52.3972 169.819 54.6356C169.516 56.7815 169.287 58.9349 169.152 61.0989C169.049 62.7745 169.081 64.4393 169.418 66.0902C169.518 66.5792 169.672 67.0486 169.909 67.4869C170.563 68.6981 171.802 69.0337 172.985 68.3254C173.334 68.1162 173.633 67.8457 173.89 67.5329C174.891 66.3119 175.447 64.8716 175.912 63.3889C175.963 63.2239 175.856 63.1008 175.661 63.0956C175.258 63.084 174.855 63.0919 174.453 63.0784C174.154 63.0682 174.051 62.965 174.083 62.6801C174.143 62.1577 174.22 61.6371 174.298 61.117C174.462 60.015 174.624 58.913 174.801 57.8134C174.871 57.3793 174.919 57.3425 175.327 57.33C176.225 57.3026 177.123 57.2738 178.02 57.2696C179.848 57.2603 181.676 57.2668 183.923 57.2668C186.137 57.3035 188.769 57.3472 191.401 57.3927C191.524 57.3946 191.654 57.3951 191.766 57.4355C191.837 57.4611 191.924 57.5591 191.927 57.6279C191.935 57.8106 191.917 57.9983 191.883 58.1787C191.261 61.3987 190.635 64.6183 190.009 67.8378C189.29 71.5431 188.568 75.2479 187.85 78.9531C187.02 83.2361 186.193 87.5196 185.365 91.803C185.241 92.4407 185.123 93.0798 184.988 93.7152C184.916 94.0554 184.815 94.1284 184.475 94.1135C182.618 94.0326 180.763 93.9276 178.907 93.8709C177.606 93.8314 176.304 93.8569 175.003 93.8518C174.724 93.8504 174.445 93.849 174.167 93.8379C173.939 93.829 173.844 93.6915 173.854 93.4735C173.891 92.7005 173.923 91.9271 173.969 91.1542C174.065 89.5479 174.173 87.9416 174.271 86.3353C174.374 84.6356 174.471 82.9363 174.572 81.2366C174.593 80.8787 174.524 80.8049 174.158 80.7993C173.699 80.7928 173.64 80.8258 173.528 81.2905C173.027 83.3719 172.36 85.3974 171.49 87.3537C170.682 89.171 169.717 90.8967 168.423 92.4226C167.739 93.2295 166.977 93.9513 166.091 94.5369C164.84 95.3647 163.475 95.7686 161.964 95.7091C160.688 95.6584 159.634 95.1407 158.723 94.2864C157.898 93.512 157.311 92.5653 156.827 91.5548C156.006 89.8403 155.509 88.0192 155.143 86.1633C154.584 83.3337 154.304 80.4716 154.177 77.5918C154.062 74.9932 153.988 72.3941 154.082 69.7936C154.184 66.9794 154.249 64.1628 154.502 61.3555C154.674 59.4443 154.784 57.5271 154.974 55.6182C155.205 53.3087 155.475 51.0038 155.811 48.7059C156.178 46.1938 156.614 43.6955 157.171 41.2196C158.131 36.952 159.386 32.7796 161.276 28.8197C162.644 25.9515 164.318 23.2855 166.557 21.0048C169.098 18.4145 172.116 16.6628 175.707 16.0228C178.644 15.4994 181.57 15.5747 184.416 16.5865C187.517 17.6885 189.725 19.8117 191.272 22.6673C192.464 24.869 193.151 27.2403 193.593 29.6893C194.214 33.1189 194.279 36.5816 194.211 40.0535Z" fill="white"/>
<path d="M164.384 130.298C164.331 130.784 164.398 131.366 164.079 131.72C163.751 132.085 163.148 131.956 162.669 132.021C159.634 132.437 156.591 132.802 153.556 133.219C151.349 133.522 149.149 133.88 146.946 134.214C146.793 134.237 146.642 134.272 146.488 134.289C146.135 134.327 146.026 134.234 146.074 133.881C146.215 132.864 146.196 131.843 146.187 130.822C146.179 129.921 146.053 129.033 145.82 128.162C145.699 127.712 145.524 127.283 145.273 126.888C144.732 126.04 143.96 125.6 142.956 125.567C141.54 125.519 140.355 126.029 139.381 127.046C138.683 127.773 138.219 128.645 137.845 129.568C137.318 130.866 136.996 132.221 136.773 133.597C136.387 135.984 136.202 138.391 136.271 140.811C136.301 141.864 136.388 142.912 136.699 143.929C136.854 144.436 137.053 144.92 137.356 145.356C137.905 146.144 138.655 146.563 139.624 146.605C140.768 146.655 141.752 146.294 142.587 145.515C143.209 144.935 143.66 144.237 144.029 143.48C144.739 142.02 145.119 140.458 145.44 138.879C145.527 138.455 145.502 137.951 145.733 137.63C145.989 137.273 146.543 137.457 146.964 137.41C147.979 137.296 148.998 137.216 150.017 137.147C151.407 137.053 152.799 136.971 154.191 136.904C156.727 136.781 159.263 136.669 161.8 136.566C162.259 136.548 162.725 136.476 163.182 136.603C163.309 137.099 163.115 137.564 163.022 138.033C162.306 141.652 161.308 145.191 159.967 148.631C158.851 151.493 157.523 154.249 155.857 156.835C154.408 159.084 152.744 161.154 150.739 162.937C148.294 165.113 145.53 166.717 142.319 167.459C138.707 168.294 135.132 168.22 131.641 166.847C128.76 165.714 126.5 163.789 124.67 161.329C122.97 159.044 121.793 156.497 120.92 153.8C120.05 151.112 119.493 148.358 119.2 145.548C119.02 143.822 118.886 142.096 118.902 140.358C118.947 133.968 120.129 127.813 122.743 121.959C124.398 118.251 126.572 114.885 129.437 111.99C133.266 108.121 137.837 105.612 143.187 104.539C145.046 104.167 146.919 103.95 148.816 104.045C152.054 104.208 155.02 105.145 157.577 107.201C159.367 108.64 160.732 110.424 161.784 112.455C163.05 114.897 163.81 117.501 164.238 120.208C164.769 123.564 164.752 126.929 164.384 130.298Z" fill="white"/>
<path d="M207.095 107.231C207.03 107.437 206.973 107.647 206.908 107.852C205.118 113.451 203.327 119.05 201.537 124.648C201.245 125.562 200.96 126.477 200.662 127.389C200.443 128.061 200.435 128.075 199.76 127.994C198.623 127.858 197.49 127.688 196.353 127.553C194.816 127.372 193.279 127.194 191.738 127.045C190.074 126.885 188.407 126.758 186.741 126.623C186.377 126.593 186.299 126.645 186.219 126.994C185.826 128.712 185.44 130.433 185.055 132.153C185.042 132.211 185.061 132.275 185.07 132.427C185.646 132.488 186.165 132.569 186.687 132.594C189.194 132.715 191.686 133.001 194.184 133.228C194.662 133.271 195.166 133.247 195.605 133.513C195.585 133.981 195.424 134.418 195.308 134.865C194.928 136.332 194.545 137.799 194.162 139.265C194.099 139.505 194.031 139.742 193.959 139.979C193.907 140.15 193.775 140.225 193.605 140.209C193.359 140.187 193.115 140.139 192.868 140.12C191.17 139.986 189.472 139.85 187.774 139.729C186.631 139.647 185.487 139.588 184.343 139.522C184.127 139.51 183.91 139.514 183.693 139.506C183.469 139.498 183.357 139.625 183.3 139.823C183.275 139.912 183.247 140.001 183.226 140.091C182.922 141.417 182.617 142.744 182.316 144.071C182.276 144.25 182.222 144.432 182.363 144.676C183.894 144.754 185.467 144.823 187.039 144.918C188.615 145.012 190.19 145.137 191.765 145.241C193.336 145.344 194.908 145.439 196.454 145.637C196.56 145.953 196.415 146.173 196.339 146.393C194.061 152.971 191.78 159.547 189.489 166.12C189.241 166.831 189.382 166.858 188.547 166.856C179.656 166.843 170.766 166.832 161.875 166.817C161.571 166.816 161.257 166.869 160.918 166.713C161.05 165.919 161.174 165.128 161.312 164.339C161.846 161.292 162.384 158.246 162.92 155.199C163.525 151.756 164.132 148.314 164.733 144.87C165.2 142.188 165.655 139.504 166.12 136.822C166.495 134.658 166.877 132.495 167.257 130.332C167.788 127.316 168.321 124.3 168.851 121.284C169.343 118.481 169.834 115.678 170.323 112.874C170.828 109.979 171.331 107.083 171.835 104.188C171.855 104.066 171.863 103.941 171.888 103.82C171.948 103.534 172.038 103.443 172.32 103.44C172.877 103.435 173.435 103.446 173.992 103.454C177.43 103.501 180.864 103.668 184.293 103.892C187.104 104.076 189.912 104.322 192.713 104.616C195.267 104.884 197.813 105.229 200.35 105.642C202.427 105.981 204.498 106.346 206.555 106.79C206.676 106.816 206.802 106.827 206.917 106.868C207.082 106.928 207.152 107.05 207.095 107.231Z" fill="white"/>
<path d="M95.6055 149.41C95.5716 152.368 95.1756 155.275 94.0927 158.052C92.1456 163.046 88.5282 166.119 83.3355 167.384C80.8707 167.984 78.3683 168.067 75.857 167.923C72.7978 167.747 69.8594 167.051 67.1017 165.678C63.7371 164.003 61.1162 161.527 59.1966 158.305C57.6562 155.721 56.7104 152.92 56.1959 149.967C55.5419 146.217 54.8986 142.466 54.2442 138.717C53.5363 134.663 52.821 130.611 52.109 126.558C51.9003 125.37 51.6902 124.181 51.4852 122.992C51.4155 122.587 51.4787 122.512 51.9044 122.496C52.1829 122.486 52.4622 122.491 52.7411 122.492C56.5826 122.509 60.4245 122.491 64.2642 122.372C66.121 122.315 67.976 122.192 69.8315 122.099C70.0174 122.09 70.2028 122.082 70.3887 122.072C70.5998 122.061 70.7476 122.132 70.7796 122.363C70.8052 122.546 70.8428 122.729 70.8596 122.914C71.059 125.133 71.2477 127.354 71.455 129.573C71.6739 131.915 71.9086 134.255 72.1378 136.596C72.3488 138.753 72.5584 140.909 72.7745 143.064C73.0213 145.528 73.2644 147.993 73.5312 150.454C73.6009 151.098 73.7362 151.735 73.976 152.347C74.3715 153.354 75.0887 153.879 76.1847 153.856C76.3083 153.853 76.4324 153.853 76.5561 153.845C77.6102 153.784 78.2079 153.299 78.4585 152.267C78.6276 151.568 78.6286 150.851 78.5821 150.14C78.4752 148.503 78.3423 146.868 78.2182 145.232C78.1503 144.337 78.0769 143.442 78.0099 142.547C77.7362 138.874 77.4819 135.199 77.1859 131.528C76.9344 128.412 76.6346 125.3 76.3562 122.187C76.3483 122.094 76.3371 122.002 76.3344 121.909C76.326 121.623 76.3957 121.539 76.7081 121.495C77.5967 121.368 78.4877 121.258 79.375 121.122C81.9755 120.724 84.5798 120.347 87.1724 119.904C89.5818 119.493 91.9788 119.008 94.3818 118.557C94.5333 118.529 94.688 118.51 94.8419 118.498C95.0297 118.484 95.1268 118.59 95.137 118.768C95.1645 119.262 95.1989 119.757 95.2044 120.251C95.2398 123.564 95.2653 126.877 95.3002 130.189C95.3169 131.737 95.3471 133.284 95.3708 134.831H95.3838C95.4229 138.051 95.4559 141.271 95.5033 144.49C95.5275 146.131 95.6241 147.771 95.6055 149.41Z" fill="white"/>
<path d="M117.627 112.272C117.587 113.757 117.538 115.241 117.488 116.725C117.476 117.096 117.434 117.466 117.421 117.837C117.33 120.433 117.247 123.031 117.152 125.628C117.032 128.905 116.904 132.182 116.775 135.458C116.725 136.725 116.661 137.992 116.604 139.259C116.608 139.259 116.612 139.259 116.616 139.259C116.48 142.938 116.347 146.617 116.209 150.296C116.098 153.263 115.986 156.231 115.869 159.198C115.777 161.517 115.675 163.834 115.577 166.152C115.574 166.245 115.572 166.338 115.564 166.43C115.524 166.916 115.483 166.966 115.02 166.974C114.277 166.988 113.534 166.993 112.791 166.995C108.642 167.01 104.492 167.026 100.343 167.035C99.2357 167.038 99.3361 167.14 99.3338 166.054C99.3245 161.69 99.3203 157.327 99.3101 152.963C99.304 150.333 99.3212 147.702 99.2757 145.073C99.1846 139.813 99.2018 134.552 99.1925 129.292C99.186 125.64 99.1646 121.989 99.1553 118.337C99.1525 117.338 99.0707 117.482 99.9984 117.224C104.916 115.857 109.793 114.355 114.643 112.769C115.496 112.49 116.345 112.202 117.199 111.927C117.544 111.816 117.637 111.887 117.627 112.272Z" fill="white"/>
<path d="M53.3196 165.215C52.0321 166.978 50.2794 167.897 48.0954 167.962C46.2032 168.017 44.3226 167.834 42.4421 167.647C40.7781 167.481 39.1212 167.269 37.4707 167.006C36.5239 166.855 35.5883 166.625 34.6382 166.509C34.061 166.438 33.869 166.123 33.7431 165.631C33.467 164.552 33.1556 163.482 32.8613 162.409C31.9703 159.157 31.0779 155.906 30.1944 152.652C30.1228 152.389 29.9773 152.133 30.0591 151.806C30.9789 151.646 31.8871 151.931 32.8056 151.956C33.73 151.982 34.642 152.224 35.6115 152.129C35.7138 151.876 35.5929 151.646 35.5358 151.425C34.6159 147.861 33.6901 144.299 32.7623 140.737C31.282 135.051 29.7988 129.364 28.3171 123.678C28.0517 122.66 27.7835 121.643 27.5241 120.624C27.4419 120.302 27.5265 120.198 27.8067 120.238C29.5822 120.496 31.355 120.779 33.1346 121.006C35.13 121.26 37.13 121.482 39.1314 121.685C40.9483 121.869 42.7688 122.018 44.5894 122.167C45.2992 122.225 46.0122 122.235 46.7233 122.277C47.2936 122.31 47.3415 122.347 47.4488 122.906C47.7709 124.577 48.0805 126.249 48.3993 127.921C49.1179 131.688 49.8411 135.455 50.5583 139.223C51.2699 142.96 51.975 146.699 52.6852 150.437C53.2685 153.506 53.8695 156.572 54.4356 159.644C54.8032 161.64 54.5457 163.536 53.3196 165.215Z" fill="white"/>
</g>
</g>
<defs>
<clipPath id="clip0_251_2384">
<rect width="232" height="168" fill="white"/>
</clipPath>
</defs>
</svg>
