<svg width="77" height="70" viewBox="0 0 77 70" fill="none" xmlns="http://www.w3.org/2000/svg">
<g clip-path="url(#clip0_835_4599)">
<path d="M40.5 2L68.5449 18.452L68 53.5" stroke="url(#paint0_linear_835_4599)" stroke-opacity="0.6" stroke-width="1.5"/>
<path d="M40.0449 70.5L12 54.048L12.5449 19" stroke="url(#paint1_linear_835_4599)" stroke-opacity="0.6" stroke-width="1.5"/>
<path d="M67.7498 53.9485L68.3833 18.4715L40.5085 2L12.0001 18.4715V53.9485L40.5085 70.42L67.7498 53.9485Z" stroke="#FF5A23" stroke-opacity="0.4" stroke-width="1.5"/>
<path d="M8.768 34.224C7.872 34.224 7.04533 34.08 6.288 33.792C5.53067 33.504 4.86933 33.0987 4.304 32.576C3.74933 32.0427 3.31733 31.424 3.008 30.72C2.69867 30.016 2.544 29.2427 2.544 28.4C2.544 27.5573 2.69867 26.784 3.008 26.08C3.31733 25.376 3.74933 24.7627 4.304 24.24C4.86933 23.7067 5.53067 23.296 6.288 23.008C7.04533 22.72 7.872 22.576 8.768 22.576C9.67467 22.576 10.5013 22.72 11.248 23.008C12.0053 23.296 12.6613 23.7067 13.216 24.24C13.7707 24.7627 14.2027 25.376 14.512 26.08C14.832 26.784 14.992 27.5573 14.992 28.4C14.992 29.2427 14.832 30.0213 14.512 30.736C14.2027 31.44 13.7707 32.0533 13.216 32.576C12.6613 33.0987 12.0053 33.504 11.248 33.792C10.5013 34.08 9.67467 34.224 8.768 34.224ZM8.768 31.6C9.19467 31.6 9.58933 31.5253 9.952 31.376C10.3253 31.2267 10.6453 31.0133 10.912 30.736C11.1893 30.448 11.4027 30.1067 11.552 29.712C11.712 29.3173 11.792 28.88 11.792 28.4C11.792 27.9093 11.712 27.472 11.552 27.088C11.4027 26.6933 11.1893 26.3573 10.912 26.08C10.6453 25.792 10.3253 25.5733 9.952 25.424C9.58933 25.2747 9.19467 25.2 8.768 25.2C8.34133 25.2 7.94133 25.2747 7.568 25.424C7.20533 25.5733 6.88533 25.792 6.608 26.08C6.34133 26.3573 6.128 26.6933 5.968 27.088C5.81867 27.472 5.744 27.9093 5.744 28.4C5.744 28.88 5.81867 29.3173 5.968 29.712C6.128 30.1067 6.34133 30.448 6.608 30.736C6.88533 31.0133 7.20533 31.2267 7.568 31.376C7.94133 31.5253 8.34133 31.6 8.768 31.6ZM16.6513 34V22.8H21.7713C22.7953 22.8 23.6753 22.9653 24.4113 23.296C25.1579 23.6267 25.7339 24.1067 26.1393 24.736C26.5446 25.3547 26.7473 26.0907 26.7473 26.944C26.7473 27.7867 26.5446 28.5173 26.1393 29.136C25.7339 29.744 25.1579 30.2133 24.4113 30.544C23.6753 30.864 22.7953 31.024 21.7713 31.024H18.4113L19.8193 29.696V34H16.6513ZM23.5793 34L20.7953 29.92H24.1713L26.9713 34H23.5793ZM19.8193 30.032L18.4113 28.576H21.5793C22.2406 28.576 22.7313 28.432 23.0513 28.144C23.3819 27.856 23.5473 27.456 23.5473 26.944C23.5473 26.4213 23.3819 26.016 23.0513 25.728C22.7313 25.44 22.2406 25.296 21.5793 25.296H18.4113L19.8193 23.84V30.032ZM27.151 34L32.095 22.8H35.215L40.175 34H36.879L33.007 24.352H34.255L30.383 34H27.151ZM29.855 31.824L30.671 29.488H36.143L36.959 31.824H29.855ZM41.0731 34V22.8H43.6811L49.8571 30.256H48.6251V22.8H51.7291V34H49.1211L42.9451 26.544H44.1771V34H41.0731ZM59.5638 34.224C58.6784 34.224 57.8571 34.0853 57.0998 33.808C56.3424 33.52 55.6864 33.1147 55.1318 32.592C54.5878 32.0693 54.1611 31.456 53.8518 30.752C53.5424 30.0373 53.3878 29.2533 53.3878 28.4C53.3878 27.5467 53.5424 26.768 53.8518 26.064C54.1611 25.3493 54.5931 24.7307 55.1478 24.208C55.7024 23.6853 56.3584 23.2853 57.1158 23.008C57.8838 22.72 58.7211 22.576 59.6278 22.576C60.6838 22.576 61.6278 22.752 62.4598 23.104C63.2918 23.456 63.9798 23.9627 64.5238 24.624L62.5078 26.448C62.1238 26.032 61.7078 25.7227 61.2598 25.52C60.8224 25.3067 60.3318 25.2 59.7878 25.2C59.3078 25.2 58.8704 25.2747 58.4758 25.424C58.0811 25.5733 57.7451 25.792 57.4678 26.08C57.1904 26.3573 56.9718 26.6933 56.8118 27.088C56.6624 27.472 56.5878 27.9093 56.5878 28.4C56.5878 28.8693 56.6624 29.3013 56.8118 29.696C56.9718 30.0907 57.1904 30.432 57.4678 30.72C57.7451 30.9973 58.0758 31.216 58.4598 31.376C58.8544 31.5253 59.2864 31.6 59.7558 31.6C60.2251 31.6 60.6838 31.5253 61.1318 31.376C61.5798 31.216 62.0331 30.9493 62.4918 30.576L64.2678 32.8C63.6278 33.2587 62.8864 33.6107 62.0438 33.856C61.2011 34.1013 60.3744 34.224 59.5638 34.224ZM61.4678 32.384V28.16H64.2678V32.8L61.4678 32.384ZM69.1883 27.136H74.3883V29.504H69.1883V27.136ZM69.4123 31.552H75.2683V34H66.2763V22.8H75.0603V25.248H69.4123V31.552Z" fill="#FF5A23"/>
<path d="M6.504 45V36.312H3.064V33.8H13.096V36.312H9.672V45H6.504ZM14.2763 45V33.8H19.3963C20.4203 33.8 21.3003 33.9653 22.0363 34.296C22.7829 34.6267 23.3589 35.1067 23.7643 35.736C24.1696 36.3547 24.3723 37.0907 24.3723 37.944C24.3723 38.7867 24.1696 39.5173 23.7643 40.136C23.3589 40.744 22.7829 41.2133 22.0363 41.544C21.3003 41.864 20.4203 42.024 19.3963 42.024H16.0363L17.4443 40.696V45H14.2763ZM21.2043 45L18.4203 40.92H21.7963L24.5963 45H21.2043ZM17.4443 41.032L16.0363 39.576H19.2043C19.8656 39.576 20.3563 39.432 20.6763 39.144C21.0069 38.856 21.1723 38.456 21.1723 37.944C21.1723 37.4213 21.0069 37.016 20.6763 36.728C20.3563 36.44 19.8656 36.296 19.2043 36.296H16.0363L17.4443 34.84V41.032ZM26.12 45V33.8H29.288V45H26.12ZM31.5419 45V33.8H34.7099V42.488H40.0539V45H31.5419ZM48.7955 33.8H51.9635V45H48.7955V33.8ZM44.4755 45H41.3075V33.8H44.4755V45ZM49.0195 40.632H44.2515V38.008H49.0195V40.632ZM52.8541 45L57.7981 33.8H60.9181L65.8781 45H62.5821L58.7101 35.352H59.9581L56.0861 45H52.8541ZM55.5581 42.824L56.3741 40.488H61.8461L62.6621 42.824H55.5581ZM70.7123 45.224C69.7949 45.224 68.9096 45.112 68.0563 44.888C67.2136 44.6533 66.5256 44.3547 65.9923 43.992L67.0323 41.656C67.5336 41.976 68.1096 42.2427 68.7603 42.456C69.4216 42.6587 70.0776 42.76 70.7283 42.76C71.1656 42.76 71.5176 42.7227 71.7843 42.648C72.0509 42.5627 72.2429 42.456 72.3603 42.328C72.4883 42.1893 72.5523 42.0293 72.5523 41.848C72.5523 41.592 72.4349 41.3893 72.2003 41.24C71.9656 41.0907 71.6616 40.968 71.2883 40.872C70.9149 40.776 70.4989 40.68 70.0403 40.584C69.5923 40.488 69.1389 40.3653 68.6803 40.216C68.2323 40.0667 67.8216 39.8747 67.4483 39.64C67.0749 39.3947 66.7709 39.08 66.5363 38.696C66.3016 38.3013 66.1842 37.8053 66.1842 37.208C66.1842 36.536 66.3656 35.928 66.7283 35.384C67.1016 34.84 67.6563 34.4027 68.3923 34.072C69.1283 33.7413 70.0456 33.576 71.1443 33.576C71.8803 33.576 72.6003 33.6613 73.3043 33.832C74.0189 33.992 74.6536 34.232 75.2083 34.552L74.2323 36.904C73.6989 36.616 73.1709 36.4027 72.6483 36.264C72.1256 36.1147 71.6189 36.04 71.1283 36.04C70.6909 36.04 70.3389 36.088 70.0723 36.184C69.8056 36.2693 69.6136 36.3867 69.4963 36.536C69.3789 36.6853 69.3203 36.856 69.3203 37.048C69.3203 37.2933 69.4323 37.4907 69.6562 37.64C69.8909 37.7787 70.1949 37.896 70.5683 37.992C70.9523 38.0773 71.3683 38.168 71.8163 38.264C72.2749 38.36 72.7283 38.4827 73.1763 38.632C73.6349 38.7707 74.0509 38.9627 74.4243 39.208C74.7976 39.4427 75.0963 39.7573 75.3203 40.152C75.5549 40.536 75.6723 41.0213 75.6723 41.608C75.6723 42.2587 75.4856 42.8613 75.1123 43.416C74.7496 43.96 74.2003 44.3973 73.4643 44.728C72.7389 45.0587 71.8216 45.224 70.7123 45.224Z" fill="#FFFBF9"/>
</g>
<defs>
<linearGradient id="paint0_linear_835_4599" x1="41" y1="-3.5" x2="81" y2="53" gradientUnits="userSpaceOnUse">
<stop offset="0.015625" stop-color="#FFA000" stop-opacity="0.04"/>
<stop offset="0.484375" stop-color="#FFA000"/>
<stop offset="0.934726" stop-color="#FFA000" stop-opacity="0"/>
</linearGradient>
<linearGradient id="paint1_linear_835_4599" x1="39.5449" y1="76" x2="-0.455069" y2="19.5" gradientUnits="userSpaceOnUse">
<stop offset="0.015625" stop-color="#FFA000" stop-opacity="0.04"/>
<stop offset="0.484375" stop-color="#FFA000"/>
<stop offset="0.934726" stop-color="#FFA000" stop-opacity="0"/>
</linearGradient>
<clipPath id="clip0_835_4599">
<rect width="77" height="70" fill="white"/>
</clipPath>
</defs>
</svg>
