<svg width="502" height="3387" viewBox="0 0 502 3387" fill="none" xmlns="http://www.w3.org/2000/svg">
<path d="M361.708 1177.78L362 1162.22L349.146 1155L336 1162.22V1177.78L349.146 1185L361.708 1177.78Z" stroke="url(#paint0_linear_377_3908)" stroke-opacity="0.4" stroke-width="1.5"/>
<path d="M386.719 1225.54L387 1209.46L374.64 1202L362 1209.46V1225.54L374.64 1233L386.719 1225.54Z" stroke="url(#paint1_linear_377_3908)" stroke-opacity="0.4" stroke-width="1.5"/>
<path d="M373.719 1248.54L374 1232.46L361.64 1225L349 1232.46V1248.54L361.64 1256L373.719 1248.54Z" stroke="url(#paint2_linear_377_3908)" stroke-opacity="0.4"/>
<path d="M72.7191 1685.54L73 1669.46L60.6404 1662L48 1669.46V1685.54L60.6404 1693L72.7191 1685.54Z" stroke="url(#paint3_linear_377_3908)" stroke-opacity="0.3" stroke-width="1.5"/>
<path d="M47.7079 1685.54L48 1669.46L35.1461 1662L22 1669.46V1685.54L35.1461 1693L47.7079 1685.54Z" stroke="url(#paint4_linear_377_3908)" stroke-opacity="0.3" stroke-width="1.5"/>
<path d="M59.7191 1708.54L60 1692.46L47.6404 1685L35 1692.46V1708.54L47.6404 1716L59.7191 1708.54Z" stroke="url(#paint5_linear_377_3908)" stroke-opacity="0.3" stroke-width="1.5"/>
<path d="M361.708 1225.54L362 1209.46L349.146 1202L336 1209.46V1225.54L349.146 1233L361.708 1225.54Z" stroke="url(#paint6_linear_377_3908)" stroke-opacity="0.3"/>
<path d="M399.708 1186.54L400 1170.46L387.146 1163L374 1170.46V1186.54L387.146 1194L399.708 1186.54Z" stroke="url(#paint7_linear_377_3908)" stroke-opacity="0.3" stroke-width="1.5"/>
<path d="M22 1686L34.7612 1693.42V1709.68L47.2388 1716.81V1733.36L60 1740.49V1756.19L47.2388 1763.6V1779.01L59.1493 1787" stroke="url(#paint8_linear_377_3908)" stroke-opacity="0.4" stroke-width="1.5"/>
<path d="M362 1225L374.761 1232.42V1248.68L387.239 1255.81V1272.36L400 1279.49V1295.19L387.239 1302.6V1318.01L399.149 1326" stroke="url(#paint9_linear_377_3908)" stroke-opacity="0.25" stroke-width="1.5"/>
<path d="M48 1685L60.9796 1692.79V1708.58L74 1716.37V1732" stroke="url(#paint10_linear_377_3908)" stroke-opacity="0.4" stroke-width="1.5"/>
<path d="M349 1155L361.761 1162.34V1178.45L374.239 1185.51V1201.89L387 1208.95V1224.49L374.239 1231.84V1247.09L386.149 1255" stroke="url(#paint11_linear_377_3908)" stroke-opacity="0.3" stroke-width="1.5"/>
<path d="M53.7191 47.537L54 31.463L41.6404 24L29 31.463V47.537L41.6404 55L53.7191 47.537Z" stroke="url(#paint12_linear_377_3908)" stroke-opacity="0.4" stroke-width="1.5"/>
<path d="M29.7079 266.778L30 251.222L17.1461 244L4 251.222V266.778L17.1461 274L29.7079 266.778Z" stroke="url(#paint13_linear_377_3908)" stroke-opacity="0.4" stroke-width="1.5"/>
<path d="M28.7079 47.537L29 31.463L16.1461 24L3 31.463V47.537L16.1461 55L28.7079 47.537Z" stroke="url(#paint14_linear_377_3908)" stroke-opacity="0.4" stroke-width="1.5"/>
<path d="M40.7079 70.7778L41 55.2222L28.1461 48L15 55.2222V70.7778L28.1461 78L40.7079 70.7778Z" stroke="url(#paint15_linear_377_3908)" stroke-opacity="0.4" stroke-width="1.5"/>
<path d="M53.7079 94.537L54 78.463L41.1461 71L28 78.463V94.537L41.1461 102L53.7079 94.537Z" stroke="url(#paint16_linear_377_3908)" stroke-opacity="0.2" stroke-width="1.5"/>
<path d="M54.7191 314.537L55 298.463L42.6404 291L30 298.463V314.537L42.6404 322L54.7191 314.537Z" stroke="url(#paint17_linear_377_3908)" stroke-opacity="0.4" stroke-width="1.5"/>
<path d="M41.7191 337.537L42 321.463L29.6404 314L17 321.463V337.537L29.6404 345L41.7191 337.537Z" stroke="url(#paint18_linear_377_3908)" stroke-opacity="0.4"/>
<path d="M40.7191 24.537L41 8.46296L28.6404 1L16 8.46296V24.537L28.6404 32L40.7191 24.537Z" stroke="url(#paint19_linear_377_3908)" stroke-opacity="0.3" stroke-width="1.5"/>
<path d="M26.7079 140.537L27 124.463L14.1461 117L1 124.463V140.537L14.1461 148L26.7079 140.537Z" stroke="url(#paint20_linear_377_3908)" stroke-opacity="0.3" stroke-width="1.5"/>
<path d="M39.7191 116.778L40 101.222L27.6404 94L15 101.222V116.778L27.6404 124L39.7191 116.778Z" stroke="url(#paint21_linear_377_3908)" stroke-opacity="0.15"/>
<path d="M29.7079 314.537L30 298.463L17.1461 291L4 298.463V314.537L17.1461 322L29.7079 314.537Z" stroke="url(#paint22_linear_377_3908)" stroke-opacity="0.3"/>
<path d="M67.7079 275.537L68 259.463L55.1461 252L42 259.463V275.537L55.1461 283L67.7079 275.537Z" stroke="url(#paint23_linear_377_3908)" stroke-opacity="0.3" stroke-width="1.5"/>
<path d="M3 1L15.7612 8.36029V24.4963L28.2388 31.5735V47.9926L41 55.0698V70.6397L28.2388 78" stroke="url(#paint24_linear_377_3908)" stroke-opacity="0.6" stroke-width="1.5"/>
<path d="M1 141L13.7612 148.418V164.681L26.2388 171.814V188.362L39 195.494V211.186L26.2388 218.605V234.011L38.1493 242" stroke="url(#paint25_linear_377_3908)" stroke-opacity="0.4" stroke-width="1.5"/>
<path d="M30 314L42.7612 321.418V337.681L55.2388 344.814V361.362L68 368.494V384.186L55.2388 391.605V407.011L67.1493 415" stroke="url(#paint26_linear_377_3908)" stroke-opacity="0.25" stroke-width="1.5"/>
<path d="M17 244L29.7612 251.345V267.446L42.2388 274.508V290.893L55 297.955V313.492L42.2388 320.836V336.09L54.1493 344" stroke="url(#paint27_linear_377_3908)" stroke-opacity="0.3" stroke-width="1.5"/>
<path d="M381.719 485.537L382 469.463L369.64 462L357 469.463V485.537L369.64 493L381.719 485.537Z" stroke="url(#paint28_linear_377_3908)" stroke-opacity="0.2" stroke-width="1.5"/>
<path d="M73.7191 603.537L74 587.463L61.6404 580L49 587.463V603.537L61.6404 611L73.7191 603.537Z" stroke="url(#paint29_linear_377_3908)" stroke-opacity="0.2" stroke-width="1.5"/>
<path d="M368.719 508.537L369 492.463L356.64 485L344 492.463V508.537L356.64 516L368.719 508.537Z" stroke="url(#paint30_linear_377_3908)" stroke-opacity="0.2"/>
<path d="M60.7191 626.537L61 610.463L48.6404 603L36 610.463V626.537L48.6404 634L60.7191 626.537Z" stroke="url(#paint31_linear_377_3908)" stroke-opacity="0.2"/>
<path d="M356.708 485.537L357 469.463L344.146 462L331 469.463V485.537L344.146 493L356.708 485.537Z" stroke="url(#paint32_linear_377_3908)" stroke-opacity="0.2"/>
<path d="M48.7079 603.537L49 587.463L36.1461 580L23 587.463V603.537L36.1461 611L48.7079 603.537Z" stroke="url(#paint33_linear_377_3908)" stroke-opacity="0.2"/>
<path d="M357 485L369.761 492.418V508.681L382.239 515.814V532.362L395 539.494V555.186L382.239 562.605V578.011L394.149 586" stroke="url(#paint34_linear_377_3908)" stroke-opacity="0.2" stroke-width="1.5"/>
<path d="M49 603L61.7612 610.418V626.681L74.2388 633.814V650.362L87 657.494V673.186L74.2388 680.605V696.011L86.1493 704" stroke="url(#paint35_linear_377_3908)" stroke-opacity="0.2" stroke-width="1.5"/>
<path d="M344 415L356.761 422.345V438.446L369.239 445.508V461.893L382 468.955V484.492L369.239 491.836V507.09L381.149 515" stroke="url(#paint36_linear_377_3908)" stroke-opacity="0.2" stroke-width="1.5"/>
<path d="M36 533L48.7612 540.345V556.446L61.2388 563.508V579.893L74 586.955V602.492L61.2388 609.836V625.09L73.1493 633" stroke="url(#paint37_linear_377_3908)" stroke-opacity="0.2" stroke-width="1.5"/>
<path d="M398.719 3355.54L399 3339.46L386.64 3332L374 3339.46V3355.54L386.64 3363L398.719 3355.54Z" stroke="url(#paint38_linear_377_3908)" stroke-opacity="0.4" stroke-width="1.5"/>
<path d="M373.708 3355.54L374 3339.46L361.146 3332L348 3339.46V3355.54L361.146 3363L373.708 3355.54Z" stroke="url(#paint39_linear_377_3908)" stroke-opacity="0.4" stroke-width="1.5"/>
<path d="M385.719 3332.54L386 3316.46L373.64 3309L361 3316.46V3332.54L373.64 3340L385.719 3332.54Z" stroke="url(#paint40_linear_377_3908)" stroke-opacity="0.3" stroke-width="1.5"/>
<path d="M373.719 3308.54L374 3292.46L361.64 3285L349 3292.46V3308.54L361.64 3316L373.719 3308.54Z" stroke="url(#paint41_linear_377_3908)" stroke-opacity="0.3" stroke-width="1.5"/>
<path d="M348 3309L360.761 3316.36V3332.5L373.239 3339.57V3355.99L386 3363.07V3378.64L373.239 3386" stroke="url(#paint42_linear_377_3908)" stroke-opacity="0.6" stroke-width="1.5" stroke-linecap="round"/>
<path d="M358.459 2429.16L369.768 2418.48L366.278 2404.59L352.273 2400.62L341.161 2411.5L344.847 2425.59L358.459 2429.16Z" stroke="url(#paint43_linear_377_3908)"/>
<path d="M418.29 2455.94L429.599 2445.26L426.109 2431.37L412.104 2427.4L400.992 2438.28L404.678 2452.37L418.29 2455.94Z" stroke="url(#paint44_linear_377_3908)"/>
<path d="M355.974 2360.2L368.023 2348.79L364.878 2334.57L350.529 2330.93L338.676 2342.54L342.018 2356.96L355.974 2360.2Z" stroke="url(#paint45_linear_377_3908)" stroke-opacity="0.7"/>
<path d="M392.756 2464.17L404.057 2453.48L400.913 2439.95L387.262 2436.33L376.15 2447.22L379.483 2460.94L392.756 2464.17Z" stroke="url(#paint46_linear_377_3908)" stroke-opacity="0.5"/>
<path d="M332.232 2435.25L343.54 2424.57L340.05 2410.69L326.046 2406.71L314.933 2417.6L318.62 2431.68L332.232 2435.25Z" stroke="url(#paint47_linear_377_3908)"/>
<path d="M280.439 2382.38L291.756 2371.71L287.92 2357.47L273.562 2353.13L262.449 2364.02L266.49 2378.46L280.439 2382.38Z" stroke="url(#paint48_linear_377_3908)" stroke-opacity="0.4"/>
<path d="M330.825 2366.65L342.126 2355.96L338.982 2342.43L325.331 2338.82L314.219 2349.7L317.551 2363.43L330.825 2366.65Z" stroke="url(#paint49_linear_377_3908)" stroke-opacity="0.6"/>
<path d="M367.921 2471.69L379.229 2461L375.74 2447.12L361.735 2443.14L350.623 2454.03L354.309 2468.11L367.921 2471.69Z" stroke="url(#paint50_linear_377_3908)"/>
<path d="M315.429 2418.1L326.746 2407.42L322.91 2393.19L308.551 2388.85L297.439 2399.74L301.479 2414.18L315.429 2418.1Z" stroke="url(#paint51_linear_377_3908)"/>
<path d="M350.418 2453.82L361.735 2443.14L357.899 2428.91L343.54 2424.57L332.428 2435.46L336.468 2449.9L350.418 2453.82Z" stroke="url(#paint52_linear_377_3908)"/>
<path d="M297.25 2399.54L308.551 2388.85L305.407 2375.32L291.756 2371.71L280.644 2382.59L283.977 2396.32L297.25 2399.54Z" stroke="url(#paint53_linear_377_3908)" stroke-opacity="0.4"/>
<path d="M358.459 2429.16L369.768 2418.48L366.278 2404.59L352.273 2400.62L341.161 2411.5L344.847 2425.59L358.459 2429.16Z" stroke="url(#paint54_linear_377_3908)"/>
<path d="M305.275 2374.87L316.584 2364.18L313.094 2350.3L299.089 2346.33L287.977 2357.21L291.663 2371.29L305.275 2374.87Z" stroke="url(#paint55_linear_377_3908)" stroke-opacity="0.25"/>
<path d="M418.29 2455.94L429.599 2445.26L426.109 2431.37L412.104 2427.4L400.992 2438.28L404.678 2452.37L418.29 2455.94Z" stroke="url(#paint56_linear_377_3908)" stroke-opacity="0.5"/>
<path d="M343.785 2479.92L355.102 2469.24L351.266 2455L336.907 2450.67L325.795 2461.55L329.835 2476L343.785 2479.92Z" stroke="url(#paint57_linear_377_3908)"/>
<path d="M289.91 2424.92L301.218 2414.23L297.728 2400.35L283.724 2396.37L272.611 2407.26L276.298 2421.34L289.91 2424.92Z" stroke="url(#paint58_linear_377_3908)"/>
<path d="M340.956 2411.29L352.273 2400.62L348.437 2386.38L334.078 2382.04L322.966 2392.93L327.007 2407.37L340.956 2411.29Z" stroke="url(#paint59_linear_377_3908)"/>
<path d="M340.956 2411.29L352.273 2400.62L348.437 2386.38L334.078 2382.04L322.966 2392.93L327.007 2407.37L340.956 2411.29Z" stroke="url(#paint60_linear_377_3908)"/>
<path d="M391.663 2396.63L403.712 2385.22L400.567 2371L386.218 2367.36L374.365 2378.97L377.707 2393.4L391.663 2396.63Z" stroke="url(#paint61_linear_377_3908)" stroke-opacity="0.6"/>
<path d="M451.693 2423.22L462.631 2412.9L458.969 2399.18L445.137 2395.04L434.395 2405.56L438.253 2419.48L451.693 2423.22Z" stroke="url(#paint62_linear_377_3908)" stroke-opacity="0.4"/>
<path d="M444.139 2450.2L456.196 2438.8L452.704 2424.23L438.002 2420.23L426.149 2431.84L429.845 2446.62L444.139 2450.2Z" stroke="url(#paint63_linear_377_3908)" stroke-opacity="0.4"/>
<path d="M322.77 2392.73L334.078 2382.04L330.589 2368.16L316.584 2364.18L305.472 2375.07L309.158 2389.15L322.77 2392.73Z" stroke="url(#paint64_linear_377_3908)" stroke-opacity="0.4"/>
<path d="M366.506 2403.08L377.815 2392.39L374.325 2378.51L360.32 2374.54L349.208 2385.42L352.894 2399.5L366.506 2403.08Z" stroke="url(#paint65_linear_377_3908)" stroke-opacity="0.7"/>
<path d="M425.96 2431.64L438.002 2420.23L435.202 2406.36L421.207 2403.08L409.354 2414.69L412.343 2428.75L425.96 2431.64Z" stroke="url(#paint66_linear_377_3908)" stroke-opacity="0.5"/>
<path d="M350.418 2453.82L361.735 2443.14L357.899 2428.91L343.54 2424.57L332.428 2435.46L336.468 2449.9L350.418 2453.82Z" stroke="url(#paint67_linear_377_3908)"/>
<path d="M349.003 2385.21L360.32 2374.53L356.484 2360.3L342.126 2355.96L331.013 2366.85L335.054 2381.29L349.003 2385.21Z" stroke="url(#paint68_linear_377_3908)" stroke-opacity="0.3"/>
<path d="M365.13 2403.42L369.283 2418.16L357.781 2429.42L361.927 2443.75L350.223 2455.21L354.578 2469.75L343.48 2480.62L328.833 2476.17L317.936 2486.84L321.059 2501.33" stroke="url(#paint69_linear_377_3908)" stroke-width="1.5"/>
<path d="M434.408 2405.55L438.274 2420.1L426.656 2431.48L430.523 2445.61L418.701 2457.2L422.771 2471.54L411.562 2482.52L397.097 2478.36L386.091 2489.14L388.939 2503.46" stroke="url(#paint70_linear_377_3908)" stroke-opacity="0.7" stroke-width="1.5"/>
<path d="M313.346 2350.56L317.029 2364.81L305.527 2376.08L309.214 2389.94L297.51 2401.4L301.395 2415.46L290.296 2426.33L276.119 2422.36L265.222 2433.03L267.907 2447.07" stroke="url(#paint71_linear_377_3908)" stroke-width="1.5"/>
<path d="M364.429 2334.11L368.295 2348.66L356.678 2360.04L360.544 2374.18L348.723 2385.76L352.793 2400.11L341.583 2411.09L327.119 2406.92L316.113 2417.7L318.96 2432.03" stroke="url(#paint72_linear_377_3908)" stroke-width="1.5"/>
<path d="M410.614 2513.84L421.931 2503.16L418.095 2488.93L403.736 2484.59L392.624 2495.48L396.665 2509.92L410.614 2513.84Z" stroke="url(#paint73_linear_377_3908)" stroke-opacity="0.4" stroke-width="1.5"/>
<path d="M402.739 2539.75L414.426 2528.71L410.762 2514.31L396.232 2510.14L384.749 2521.39L388.617 2536L402.739 2539.75Z" stroke="url(#paint74_linear_377_3908)" stroke-opacity="0.2" stroke-width="1.5"/>
<path d="M359.56 2527.46L370.876 2516.78L367.04 2502.54L352.682 2498.21L341.57 2509.09L345.61 2523.54L359.56 2527.46Z" stroke="url(#paint75_linear_377_3908)" stroke-opacity="0.2" stroke-width="1.5"/>
<path d="M368.487 2570.52L380.166 2559.47L376.849 2545.42L362.672 2541.62L351.189 2552.86L354.704 2567.12L368.487 2570.52Z" stroke="url(#paint76_linear_377_3908)" stroke-opacity="0.3" stroke-width="1.5"/>
<path d="M350.985 2552.66L362.672 2541.62L359.008 2527.21L344.477 2523.04L332.995 2534.29L336.863 2548.9L350.985 2552.66Z" stroke="url(#paint77_linear_377_3908)" stroke-opacity="0.3" stroke-width="1.5"/>
<path d="M377.062 2545.32L388.371 2534.64L384.881 2520.76L370.876 2516.78L359.764 2527.67L363.45 2541.75L377.062 2545.32Z" stroke="url(#paint78_linear_377_3908)" stroke-opacity="0.15"/>
<defs>
<linearGradient id="paint0_linear_377_3908" x1="349" y1="1155" x2="349" y2="1185" gradientUnits="userSpaceOnUse">
<stop stop-color="#FF5A23"/>
<stop offset="0.46875" stop-color="#FF3200" stop-opacity="0.53125"/>
<stop offset="0.46885" stop-color="#FF3200" stop-opacity="0.53125"/>
<stop offset="1" stop-color="#FF3200" stop-opacity="0"/>
</linearGradient>
<linearGradient id="paint1_linear_377_3908" x1="374.5" y1="1202" x2="374.5" y2="1233" gradientUnits="userSpaceOnUse">
<stop stop-color="#FF5A23"/>
<stop offset="0.46875" stop-color="#FF3200" stop-opacity="0.53125"/>
<stop offset="0.46885" stop-color="#FF3200" stop-opacity="0.53125"/>
<stop offset="1" stop-color="#FF3200" stop-opacity="0"/>
</linearGradient>
<linearGradient id="paint2_linear_377_3908" x1="361.5" y1="1225" x2="361.5" y2="1256" gradientUnits="userSpaceOnUse">
<stop stop-color="#FF5A23"/>
<stop offset="0.46875" stop-color="#FF3200" stop-opacity="0.53125"/>
<stop offset="0.46885" stop-color="#FF3200" stop-opacity="0.53125"/>
<stop offset="1" stop-color="#FF3200" stop-opacity="0"/>
</linearGradient>
<linearGradient id="paint3_linear_377_3908" x1="60.5" y1="1662" x2="60.5" y2="1693" gradientUnits="userSpaceOnUse">
<stop stop-color="#FF5A23"/>
<stop offset="0.46875" stop-color="#FF3200" stop-opacity="0.53125"/>
<stop offset="0.46885" stop-color="#FF3200" stop-opacity="0.53125"/>
<stop offset="1" stop-color="#FF3200" stop-opacity="0"/>
</linearGradient>
<linearGradient id="paint4_linear_377_3908" x1="35" y1="1662" x2="35" y2="1693" gradientUnits="userSpaceOnUse">
<stop stop-color="#FF5A23"/>
<stop offset="0.46875" stop-color="#FF3200" stop-opacity="0.53125"/>
<stop offset="0.46885" stop-color="#FF3200" stop-opacity="0.53125"/>
<stop offset="1" stop-color="#FF3200" stop-opacity="0"/>
</linearGradient>
<linearGradient id="paint5_linear_377_3908" x1="47.5" y1="1685" x2="47.5" y2="1716" gradientUnits="userSpaceOnUse">
<stop stop-color="#FF5A23"/>
<stop offset="0.46875" stop-color="#FF3200" stop-opacity="0.53125"/>
<stop offset="0.46885" stop-color="#FF3200" stop-opacity="0.53125"/>
<stop offset="1" stop-color="#FF3200" stop-opacity="0"/>
</linearGradient>
<linearGradient id="paint6_linear_377_3908" x1="349" y1="1202" x2="349" y2="1233" gradientUnits="userSpaceOnUse">
<stop stop-color="#FF5A23"/>
<stop offset="0.46875" stop-color="#FF3200" stop-opacity="0.53125"/>
<stop offset="0.46885" stop-color="#FF3200" stop-opacity="0.53125"/>
<stop offset="1" stop-color="#FF3200" stop-opacity="0"/>
</linearGradient>
<linearGradient id="paint7_linear_377_3908" x1="387" y1="1163" x2="387" y2="1194" gradientUnits="userSpaceOnUse">
<stop stop-color="#FF5A23"/>
<stop offset="0.46875" stop-color="#FF3200" stop-opacity="0.53125"/>
<stop offset="0.46885" stop-color="#FF3200" stop-opacity="0.53125"/>
<stop offset="1" stop-color="#FF3200" stop-opacity="0"/>
</linearGradient>
<linearGradient id="paint8_linear_377_3908" x1="41" y1="1686" x2="41" y2="1787" gradientUnits="userSpaceOnUse">
<stop offset="0.015625" stop-color="#FFA000"/>
<stop offset="0.934726" stop-color="#FFA000" stop-opacity="0"/>
</linearGradient>
<linearGradient id="paint9_linear_377_3908" x1="381" y1="1225" x2="381" y2="1326" gradientUnits="userSpaceOnUse">
<stop offset="0.015625" stop-color="#FFA000"/>
<stop offset="0.934726" stop-color="#FFA000" stop-opacity="0"/>
</linearGradient>
<linearGradient id="paint10_linear_377_3908" x1="54.614" y1="1662.1" x2="54.614" y2="1762.69" gradientUnits="userSpaceOnUse">
<stop offset="0.015625" stop-color="#FFA000"/>
<stop offset="0.934726" stop-color="#FFA000" stop-opacity="0"/>
</linearGradient>
<linearGradient id="paint11_linear_377_3908" x1="368" y1="1155" x2="368" y2="1255" gradientUnits="userSpaceOnUse">
<stop offset="0.015625" stop-color="#FFA000"/>
<stop offset="0.934726" stop-color="#FFA000" stop-opacity="0"/>
</linearGradient>
<linearGradient id="paint12_linear_377_3908" x1="41.5" y1="24" x2="41.5" y2="55" gradientUnits="userSpaceOnUse">
<stop stop-color="#FF5A23"/>
<stop offset="0.46875" stop-color="#FF3200" stop-opacity="0.53125"/>
<stop offset="0.46885" stop-color="#FF3200" stop-opacity="0.53125"/>
<stop offset="1" stop-color="#FF3200" stop-opacity="0"/>
</linearGradient>
<linearGradient id="paint13_linear_377_3908" x1="17" y1="244" x2="17" y2="274" gradientUnits="userSpaceOnUse">
<stop stop-color="#FF5A23"/>
<stop offset="0.46875" stop-color="#FF3200" stop-opacity="0.53125"/>
<stop offset="0.46885" stop-color="#FF3200" stop-opacity="0.53125"/>
<stop offset="1" stop-color="#FF3200" stop-opacity="0"/>
</linearGradient>
<linearGradient id="paint14_linear_377_3908" x1="16" y1="24" x2="16" y2="55" gradientUnits="userSpaceOnUse">
<stop stop-color="#FF5A23"/>
<stop offset="0.46875" stop-color="#FF3200" stop-opacity="0.53125"/>
<stop offset="0.46885" stop-color="#FF3200" stop-opacity="0.53125"/>
<stop offset="1" stop-color="#FF3200" stop-opacity="0"/>
</linearGradient>
<linearGradient id="paint15_linear_377_3908" x1="28" y1="48" x2="28" y2="78" gradientUnits="userSpaceOnUse">
<stop stop-color="#FF5A23"/>
<stop offset="0.46875" stop-color="#FF3200" stop-opacity="0.53125"/>
<stop offset="0.46885" stop-color="#FF3200" stop-opacity="0.53125"/>
<stop offset="1" stop-color="#FF3200" stop-opacity="0"/>
</linearGradient>
<linearGradient id="paint16_linear_377_3908" x1="41" y1="71" x2="41" y2="102" gradientUnits="userSpaceOnUse">
<stop stop-color="#FF5A23"/>
<stop offset="0.46875" stop-color="#FF3200" stop-opacity="0.53125"/>
<stop offset="0.46885" stop-color="#FF3200" stop-opacity="0.53125"/>
<stop offset="1" stop-color="#FF3200" stop-opacity="0"/>
</linearGradient>
<linearGradient id="paint17_linear_377_3908" x1="42.5" y1="291" x2="42.5" y2="322" gradientUnits="userSpaceOnUse">
<stop stop-color="#FF5A23"/>
<stop offset="0.46875" stop-color="#FF3200" stop-opacity="0.53125"/>
<stop offset="0.46885" stop-color="#FF3200" stop-opacity="0.53125"/>
<stop offset="1" stop-color="#FF3200" stop-opacity="0"/>
</linearGradient>
<linearGradient id="paint18_linear_377_3908" x1="29.5" y1="314" x2="29.5" y2="345" gradientUnits="userSpaceOnUse">
<stop stop-color="#FF5A23"/>
<stop offset="0.46875" stop-color="#FF3200" stop-opacity="0.53125"/>
<stop offset="0.46885" stop-color="#FF3200" stop-opacity="0.53125"/>
<stop offset="1" stop-color="#FF3200" stop-opacity="0"/>
</linearGradient>
<linearGradient id="paint19_linear_377_3908" x1="28.5" y1="1" x2="28.5" y2="32" gradientUnits="userSpaceOnUse">
<stop stop-color="#FF5A23"/>
<stop offset="0.46875" stop-color="#FF3200" stop-opacity="0.53125"/>
<stop offset="0.46885" stop-color="#FF3200" stop-opacity="0.53125"/>
<stop offset="1" stop-color="#FF3200" stop-opacity="0"/>
</linearGradient>
<linearGradient id="paint20_linear_377_3908" x1="14" y1="117" x2="14" y2="148" gradientUnits="userSpaceOnUse">
<stop stop-color="#FF5A23"/>
<stop offset="0.46875" stop-color="#FF3200" stop-opacity="0.53125"/>
<stop offset="0.46885" stop-color="#FF3200" stop-opacity="0.53125"/>
<stop offset="1" stop-color="#FF3200" stop-opacity="0"/>
</linearGradient>
<linearGradient id="paint21_linear_377_3908" x1="27.5" y1="94" x2="27.5" y2="124" gradientUnits="userSpaceOnUse">
<stop stop-color="#FF5A23"/>
<stop offset="0.46875" stop-color="#FF3200" stop-opacity="0.53125"/>
<stop offset="0.46885" stop-color="#FF3200" stop-opacity="0.53125"/>
<stop offset="1" stop-color="#FF3200" stop-opacity="0"/>
</linearGradient>
<linearGradient id="paint22_linear_377_3908" x1="17" y1="291" x2="17" y2="322" gradientUnits="userSpaceOnUse">
<stop stop-color="#FF5A23"/>
<stop offset="0.46875" stop-color="#FF3200" stop-opacity="0.53125"/>
<stop offset="0.46885" stop-color="#FF3200" stop-opacity="0.53125"/>
<stop offset="1" stop-color="#FF3200" stop-opacity="0"/>
</linearGradient>
<linearGradient id="paint23_linear_377_3908" x1="55" y1="252" x2="55" y2="283" gradientUnits="userSpaceOnUse">
<stop stop-color="#FF5A23"/>
<stop offset="0.46875" stop-color="#FF3200" stop-opacity="0.53125"/>
<stop offset="0.46885" stop-color="#FF3200" stop-opacity="0.53125"/>
<stop offset="1" stop-color="#FF3200" stop-opacity="0"/>
</linearGradient>
<linearGradient id="paint24_linear_377_3908" x1="22" y1="1" x2="22" y2="101.213" gradientUnits="userSpaceOnUse">
<stop offset="0.015625" stop-color="#FFA000"/>
<stop offset="0.934726" stop-color="#FFA000" stop-opacity="0"/>
</linearGradient>
<linearGradient id="paint25_linear_377_3908" x1="20" y1="141" x2="20" y2="242" gradientUnits="userSpaceOnUse">
<stop offset="0.015625" stop-color="#FFA000"/>
<stop offset="0.934726" stop-color="#FFA000" stop-opacity="0"/>
</linearGradient>
<linearGradient id="paint26_linear_377_3908" x1="49" y1="314" x2="49" y2="415" gradientUnits="userSpaceOnUse">
<stop offset="0.015625" stop-color="#FFA000"/>
<stop offset="0.934726" stop-color="#FFA000" stop-opacity="0"/>
</linearGradient>
<linearGradient id="paint27_linear_377_3908" x1="36" y1="244" x2="36" y2="344" gradientUnits="userSpaceOnUse">
<stop offset="0.015625" stop-color="#FFA000"/>
<stop offset="0.934726" stop-color="#FFA000" stop-opacity="0"/>
</linearGradient>
<linearGradient id="paint28_linear_377_3908" x1="369.5" y1="462" x2="369.5" y2="493" gradientUnits="userSpaceOnUse">
<stop stop-color="#FF5A23"/>
<stop offset="0.46875" stop-color="#FF3200" stop-opacity="0.53125"/>
<stop offset="0.46885" stop-color="#FF3200" stop-opacity="0.53125"/>
<stop offset="1" stop-color="#FF3200" stop-opacity="0"/>
</linearGradient>
<linearGradient id="paint29_linear_377_3908" x1="61.5" y1="580" x2="61.5" y2="611" gradientUnits="userSpaceOnUse">
<stop stop-color="#FF5A23"/>
<stop offset="0.46875" stop-color="#FF3200" stop-opacity="0.53125"/>
<stop offset="0.46885" stop-color="#FF3200" stop-opacity="0.53125"/>
<stop offset="1" stop-color="#FF3200" stop-opacity="0"/>
</linearGradient>
<linearGradient id="paint30_linear_377_3908" x1="356.5" y1="485" x2="356.5" y2="516" gradientUnits="userSpaceOnUse">
<stop stop-color="#FF5A23"/>
<stop offset="0.46875" stop-color="#FF3200" stop-opacity="0.53125"/>
<stop offset="0.46885" stop-color="#FF3200" stop-opacity="0.53125"/>
<stop offset="1" stop-color="#FF3200" stop-opacity="0"/>
</linearGradient>
<linearGradient id="paint31_linear_377_3908" x1="48.5" y1="603" x2="48.5" y2="634" gradientUnits="userSpaceOnUse">
<stop stop-color="#FF5A23"/>
<stop offset="0.46875" stop-color="#FF3200" stop-opacity="0.53125"/>
<stop offset="0.46885" stop-color="#FF3200" stop-opacity="0.53125"/>
<stop offset="1" stop-color="#FF3200" stop-opacity="0"/>
</linearGradient>
<linearGradient id="paint32_linear_377_3908" x1="344" y1="462" x2="344" y2="493" gradientUnits="userSpaceOnUse">
<stop stop-color="#FF5A23"/>
<stop offset="0.46875" stop-color="#FF3200" stop-opacity="0.53125"/>
<stop offset="0.46885" stop-color="#FF3200" stop-opacity="0.53125"/>
<stop offset="1" stop-color="#FF3200" stop-opacity="0"/>
</linearGradient>
<linearGradient id="paint33_linear_377_3908" x1="36" y1="580" x2="36" y2="611" gradientUnits="userSpaceOnUse">
<stop stop-color="#FF5A23"/>
<stop offset="0.46875" stop-color="#FF3200" stop-opacity="0.53125"/>
<stop offset="0.46885" stop-color="#FF3200" stop-opacity="0.53125"/>
<stop offset="1" stop-color="#FF3200" stop-opacity="0"/>
</linearGradient>
<linearGradient id="paint34_linear_377_3908" x1="376" y1="485" x2="376" y2="586" gradientUnits="userSpaceOnUse">
<stop offset="0.015625" stop-color="#FFA000"/>
<stop offset="0.934726" stop-color="#FFA000" stop-opacity="0"/>
</linearGradient>
<linearGradient id="paint35_linear_377_3908" x1="68" y1="603" x2="68" y2="704" gradientUnits="userSpaceOnUse">
<stop offset="0.015625" stop-color="#FFA000"/>
<stop offset="0.934726" stop-color="#FFA000" stop-opacity="0"/>
</linearGradient>
<linearGradient id="paint36_linear_377_3908" x1="363" y1="415" x2="363" y2="515" gradientUnits="userSpaceOnUse">
<stop offset="0.015625" stop-color="#FFA000"/>
<stop offset="0.934726" stop-color="#FFA000" stop-opacity="0"/>
</linearGradient>
<linearGradient id="paint37_linear_377_3908" x1="55" y1="533" x2="55" y2="633" gradientUnits="userSpaceOnUse">
<stop offset="0.015625" stop-color="#FFA000"/>
<stop offset="0.934726" stop-color="#FFA000" stop-opacity="0"/>
</linearGradient>
<linearGradient id="paint38_linear_377_3908" x1="386.5" y1="3332" x2="386.5" y2="3363" gradientUnits="userSpaceOnUse">
<stop stop-color="#FF5A23"/>
<stop offset="0.46875" stop-color="#FF3200" stop-opacity="0.53125"/>
<stop offset="0.46885" stop-color="#FF3200" stop-opacity="0.53125"/>
<stop offset="1" stop-color="#FF3200" stop-opacity="0"/>
</linearGradient>
<linearGradient id="paint39_linear_377_3908" x1="361" y1="3332" x2="361" y2="3363" gradientUnits="userSpaceOnUse">
<stop stop-color="#FF5A23"/>
<stop offset="0.46875" stop-color="#FF3200" stop-opacity="0.53125"/>
<stop offset="0.46885" stop-color="#FF3200" stop-opacity="0.53125"/>
<stop offset="1" stop-color="#FF3200" stop-opacity="0"/>
</linearGradient>
<linearGradient id="paint40_linear_377_3908" x1="373.5" y1="3309" x2="373.5" y2="3340" gradientUnits="userSpaceOnUse">
<stop stop-color="#FF5A23"/>
<stop offset="0.46875" stop-color="#FF3200" stop-opacity="0.53125"/>
<stop offset="0.46885" stop-color="#FF3200" stop-opacity="0.53125"/>
<stop offset="1" stop-color="#FF3200" stop-opacity="0"/>
</linearGradient>
<linearGradient id="paint41_linear_377_3908" x1="361.5" y1="3285" x2="361.5" y2="3316" gradientUnits="userSpaceOnUse">
<stop stop-color="#FF5A23"/>
<stop offset="0.46875" stop-color="#FF3200" stop-opacity="0.53125"/>
<stop offset="0.46885" stop-color="#FF3200" stop-opacity="0.53125"/>
<stop offset="1" stop-color="#FF3200" stop-opacity="0"/>
</linearGradient>
<linearGradient id="paint42_linear_377_3908" x1="367" y1="3309" x2="367" y2="3409.21" gradientUnits="userSpaceOnUse">
<stop offset="0.015625" stop-color="#FFA000"/>
<stop offset="0.934726" stop-color="#FFA000" stop-opacity="0"/>
</linearGradient>
<linearGradient id="paint43_linear_377_3908" x1="366.179" y1="2404.49" x2="344.749" y2="2425.49" gradientUnits="userSpaceOnUse">
<stop stop-color="#FF5A23"/>
<stop offset="0.46875" stop-color="#FF3200" stop-opacity="0.53125"/>
<stop offset="0.46885" stop-color="#FF3200" stop-opacity="0.53125"/>
<stop offset="1" stop-color="#FF3200" stop-opacity="0"/>
</linearGradient>
<linearGradient id="paint44_linear_377_3908" x1="426.011" y1="2431.27" x2="404.58" y2="2452.27" gradientUnits="userSpaceOnUse">
<stop stop-color="#FF5A23"/>
<stop offset="0.46875" stop-color="#FF3200" stop-opacity="0.53125"/>
<stop offset="0.46885" stop-color="#FF3200" stop-opacity="0.53125"/>
<stop offset="1" stop-color="#FF3200" stop-opacity="0"/>
</linearGradient>
<linearGradient id="paint45_linear_377_3908" x1="364.779" y1="2334.47" x2="341.92" y2="2356.86" gradientUnits="userSpaceOnUse">
<stop stop-color="#FF5A23"/>
<stop offset="0.46875" stop-color="#FF3200" stop-opacity="0.53125"/>
<stop offset="0.46885" stop-color="#FF3200" stop-opacity="0.53125"/>
<stop offset="1" stop-color="#FF3200" stop-opacity="0"/>
</linearGradient>
<linearGradient id="paint46_linear_377_3908" x1="400.819" y1="2439.85" x2="379.388" y2="2460.85" gradientUnits="userSpaceOnUse">
<stop stop-color="#FF5A23"/>
<stop offset="0.46875" stop-color="#FF3200" stop-opacity="0.53125"/>
<stop offset="0.46885" stop-color="#FF3200" stop-opacity="0.53125"/>
<stop offset="1" stop-color="#FF3200" stop-opacity="0"/>
</linearGradient>
<linearGradient id="paint47_linear_377_3908" x1="339.952" y1="2410.59" x2="318.522" y2="2431.58" gradientUnits="userSpaceOnUse">
<stop stop-color="#FF5A23"/>
<stop offset="0.46875" stop-color="#FF3200" stop-opacity="0.53125"/>
<stop offset="0.46885" stop-color="#FF3200" stop-opacity="0.53125"/>
<stop offset="1" stop-color="#FF3200" stop-opacity="0"/>
</linearGradient>
<linearGradient id="paint48_linear_377_3908" x1="287.818" y1="2357.37" x2="266.387" y2="2378.36" gradientUnits="userSpaceOnUse">
<stop stop-color="#FF5A23"/>
<stop offset="0.46875" stop-color="#FF3200" stop-opacity="0.53125"/>
<stop offset="0.46885" stop-color="#FF3200" stop-opacity="0.53125"/>
<stop offset="1" stop-color="#FF3200" stop-opacity="0"/>
</linearGradient>
<linearGradient id="paint49_linear_377_3908" x1="338.887" y1="2342.34" x2="317.457" y2="2363.33" gradientUnits="userSpaceOnUse">
<stop stop-color="#FF5A23"/>
<stop offset="0.46875" stop-color="#FF3200" stop-opacity="0.53125"/>
<stop offset="0.46885" stop-color="#FF3200" stop-opacity="0.53125"/>
<stop offset="1" stop-color="#FF3200" stop-opacity="0"/>
</linearGradient>
<linearGradient id="paint50_linear_377_3908" x1="375.641" y1="2447.02" x2="354.211" y2="2468.01" gradientUnits="userSpaceOnUse">
<stop stop-color="#FF5A23"/>
<stop offset="0.46875" stop-color="#FF3200" stop-opacity="0.53125"/>
<stop offset="0.46885" stop-color="#FF3200" stop-opacity="0.53125"/>
<stop offset="1" stop-color="#FF3200" stop-opacity="0"/>
</linearGradient>
<linearGradient id="paint51_linear_377_3908" x1="322.808" y1="2393.08" x2="301.377" y2="2414.08" gradientUnits="userSpaceOnUse">
<stop stop-color="#FF5A23"/>
<stop offset="0.46875" stop-color="#FF3200" stop-opacity="0.53125"/>
<stop offset="0.46885" stop-color="#FF3200" stop-opacity="0.53125"/>
<stop offset="1" stop-color="#FF3200" stop-opacity="0"/>
</linearGradient>
<linearGradient id="paint52_linear_377_3908" x1="357.797" y1="2428.8" x2="336.366" y2="2449.8" gradientUnits="userSpaceOnUse">
<stop stop-color="#FF5A23"/>
<stop offset="0.46875" stop-color="#FF3200" stop-opacity="0.53125"/>
<stop offset="0.46885" stop-color="#FF3200" stop-opacity="0.53125"/>
<stop offset="1" stop-color="#FF3200" stop-opacity="0"/>
</linearGradient>
<linearGradient id="paint53_linear_377_3908" x1="305.313" y1="2375.23" x2="283.882" y2="2396.22" gradientUnits="userSpaceOnUse">
<stop stop-color="#FF5A23"/>
<stop offset="0.46875" stop-color="#FF3200" stop-opacity="0.53125"/>
<stop offset="0.46885" stop-color="#FF3200" stop-opacity="0.53125"/>
<stop offset="1" stop-color="#FF3200" stop-opacity="0"/>
</linearGradient>
<linearGradient id="paint54_linear_377_3908" x1="366.179" y1="2404.49" x2="344.749" y2="2425.49" gradientUnits="userSpaceOnUse">
<stop stop-color="#FF5A23"/>
<stop offset="0.46875" stop-color="#FF3200" stop-opacity="0.53125"/>
<stop offset="0.46885" stop-color="#FF3200" stop-opacity="0.53125"/>
<stop offset="1" stop-color="#FF3200" stop-opacity="0"/>
</linearGradient>
<linearGradient id="paint55_linear_377_3908" x1="312.996" y1="2350.2" x2="291.565" y2="2371.19" gradientUnits="userSpaceOnUse">
<stop stop-color="#FF5A23"/>
<stop offset="0.46875" stop-color="#FF3200" stop-opacity="0.53125"/>
<stop offset="0.46885" stop-color="#FF3200" stop-opacity="0.53125"/>
<stop offset="1" stop-color="#FF3200" stop-opacity="0"/>
</linearGradient>
<linearGradient id="paint56_linear_377_3908" x1="426.011" y1="2431.27" x2="404.58" y2="2452.27" gradientUnits="userSpaceOnUse">
<stop stop-color="#FF5A23"/>
<stop offset="0.46875" stop-color="#FF3200" stop-opacity="0.53125"/>
<stop offset="0.46885" stop-color="#FF3200" stop-opacity="0.53125"/>
<stop offset="1" stop-color="#FF3200" stop-opacity="0"/>
</linearGradient>
<linearGradient id="paint57_linear_377_3908" x1="351.164" y1="2454.9" x2="329.733" y2="2475.89" gradientUnits="userSpaceOnUse">
<stop stop-color="#FF5A23"/>
<stop offset="0.46875" stop-color="#FF3200" stop-opacity="0.53125"/>
<stop offset="0.46885" stop-color="#FF3200" stop-opacity="0.53125"/>
<stop offset="1" stop-color="#FF3200" stop-opacity="0"/>
</linearGradient>
<linearGradient id="paint58_linear_377_3908" x1="297.63" y1="2400.25" x2="276.2" y2="2421.24" gradientUnits="userSpaceOnUse">
<stop stop-color="#FF5A23"/>
<stop offset="0.46875" stop-color="#FF3200" stop-opacity="0.53125"/>
<stop offset="0.46885" stop-color="#FF3200" stop-opacity="0.53125"/>
<stop offset="1" stop-color="#FF3200" stop-opacity="0"/>
</linearGradient>
<linearGradient id="paint59_linear_377_3908" x1="348.335" y1="2386.28" x2="326.904" y2="2407.27" gradientUnits="userSpaceOnUse">
<stop stop-color="#FF5A23"/>
<stop offset="0.46875" stop-color="#FF3200" stop-opacity="0.53125"/>
<stop offset="0.46885" stop-color="#FF3200" stop-opacity="0.53125"/>
<stop offset="1" stop-color="#FF3200" stop-opacity="0"/>
</linearGradient>
<linearGradient id="paint60_linear_377_3908" x1="348.335" y1="2386.28" x2="326.904" y2="2407.27" gradientUnits="userSpaceOnUse">
<stop stop-color="#FF5A23"/>
<stop offset="0.46875" stop-color="#FF3200" stop-opacity="0.53125"/>
<stop offset="0.46885" stop-color="#FF3200" stop-opacity="0.53125"/>
<stop offset="1" stop-color="#FF3200" stop-opacity="0"/>
</linearGradient>
<linearGradient id="paint61_linear_377_3908" x1="400.468" y1="2370.9" x2="377.609" y2="2393.3" gradientUnits="userSpaceOnUse">
<stop stop-color="#FF5A23"/>
<stop offset="0.46875" stop-color="#FF3200" stop-opacity="0.53125"/>
<stop offset="0.46885" stop-color="#FF3200" stop-opacity="0.53125"/>
<stop offset="1" stop-color="#FF3200" stop-opacity="0"/>
</linearGradient>
<linearGradient id="paint62_linear_377_3908" x1="458.871" y1="2399.08" x2="438.155" y2="2419.38" gradientUnits="userSpaceOnUse">
<stop stop-color="#FF5A23"/>
<stop offset="0.46875" stop-color="#FF3200" stop-opacity="0.53125"/>
<stop offset="0.46885" stop-color="#FF3200" stop-opacity="0.53125"/>
<stop offset="1" stop-color="#FF3200" stop-opacity="0"/>
</linearGradient>
<linearGradient id="paint63_linear_377_3908" x1="452.602" y1="2424.12" x2="429.743" y2="2446.51" gradientUnits="userSpaceOnUse">
<stop stop-color="#FF5A23"/>
<stop offset="0.46875" stop-color="#FF3200" stop-opacity="0.53125"/>
<stop offset="0.46885" stop-color="#FF3200" stop-opacity="0.53125"/>
<stop offset="1" stop-color="#FF3200" stop-opacity="0"/>
</linearGradient>
<linearGradient id="paint64_linear_377_3908" x1="330.49" y1="2368.06" x2="309.06" y2="2389.05" gradientUnits="userSpaceOnUse">
<stop stop-color="#FF5A23"/>
<stop offset="0.46875" stop-color="#FF3200" stop-opacity="0.53125"/>
<stop offset="0.46885" stop-color="#FF3200" stop-opacity="0.53125"/>
<stop offset="1" stop-color="#FF3200" stop-opacity="0"/>
</linearGradient>
<linearGradient id="paint65_linear_377_3908" x1="352.868" y1="2399.21" x2="391.023" y2="2330.83" gradientUnits="userSpaceOnUse">
<stop stop-color="#FF5A23"/>
<stop offset="0.378738" stop-color="#FF3200" stop-opacity="0.53125"/>
<stop offset="0.46885" stop-color="#FF3200" stop-opacity="0.53125"/>
<stop offset="0.653437" stop-color="#FF3200" stop-opacity="0"/>
</linearGradient>
<linearGradient id="paint66_linear_377_3908" x1="435.108" y1="2406.26" x2="412.248" y2="2428.66" gradientUnits="userSpaceOnUse">
<stop stop-color="#FF5A23"/>
<stop offset="0.46875" stop-color="#FF3200" stop-opacity="0.53125"/>
<stop offset="0.46885" stop-color="#FF3200" stop-opacity="0.53125"/>
<stop offset="1" stop-color="#FF3200" stop-opacity="0"/>
</linearGradient>
<linearGradient id="paint67_linear_377_3908" x1="357.797" y1="2428.8" x2="336.366" y2="2449.8" gradientUnits="userSpaceOnUse">
<stop stop-color="#FF5A23"/>
<stop offset="0.46875" stop-color="#FF3200" stop-opacity="0.53125"/>
<stop offset="0.46885" stop-color="#FF3200" stop-opacity="0.53125"/>
<stop offset="1" stop-color="#FF3200" stop-opacity="0"/>
</linearGradient>
<linearGradient id="paint68_linear_377_3908" x1="356.382" y1="2360.19" x2="334.951" y2="2381.19" gradientUnits="userSpaceOnUse">
<stop stop-color="#FF5A23"/>
<stop offset="0.46875" stop-color="#FF3200" stop-opacity="0.53125"/>
<stop offset="0.46885" stop-color="#FF3200" stop-opacity="0.53125"/>
<stop offset="1" stop-color="#FF3200" stop-opacity="0"/>
</linearGradient>
<linearGradient id="paint69_linear_377_3908" x1="379.125" y1="2417.71" x2="307.69" y2="2487.69" gradientUnits="userSpaceOnUse">
<stop offset="0.015625" stop-color="#FFA000"/>
<stop offset="0.934726" stop-color="#FFA000" stop-opacity="0"/>
</linearGradient>
<linearGradient id="paint70_linear_377_3908" x1="448.054" y1="2419.48" x2="375.904" y2="2490.16" gradientUnits="userSpaceOnUse">
<stop offset="0.015625" stop-color="#FFA000"/>
<stop offset="0.934726" stop-color="#FFA000" stop-opacity="0"/>
</linearGradient>
<linearGradient id="paint71_linear_377_3908" x1="315.578" y1="2348.37" x2="255.163" y2="2434.08" gradientUnits="userSpaceOnUse">
<stop stop-color="#FFA000" stop-opacity="0"/>
<stop offset="0.568423" stop-color="#FFA000"/>
<stop offset="1" stop-color="#FFA000" stop-opacity="0.03"/>
</linearGradient>
<linearGradient id="paint72_linear_377_3908" x1="378.075" y1="2348.04" x2="305.926" y2="2418.72" gradientUnits="userSpaceOnUse">
<stop offset="0.015625" stop-color="#FFA000"/>
<stop offset="0.934726" stop-color="#FFA000" stop-opacity="0"/>
</linearGradient>
<linearGradient id="paint73_linear_377_3908" x1="417.993" y1="2488.82" x2="396.562" y2="2509.82" gradientUnits="userSpaceOnUse">
<stop stop-color="#FF5A23"/>
<stop offset="0.46875" stop-color="#FF3200" stop-opacity="0.53125"/>
<stop offset="0.46885" stop-color="#FF3200" stop-opacity="0.53125"/>
<stop offset="1" stop-color="#FF3200" stop-opacity="0"/>
</linearGradient>
<linearGradient id="paint74_linear_377_3908" x1="410.66" y1="2514.2" x2="388.515" y2="2535.9" gradientUnits="userSpaceOnUse">
<stop stop-color="#FF5A23"/>
<stop offset="0.46875" stop-color="#FF3200" stop-opacity="0.53125"/>
<stop offset="0.46885" stop-color="#FF3200" stop-opacity="0.53125"/>
<stop offset="1" stop-color="#FF3200" stop-opacity="0"/>
</linearGradient>
<linearGradient id="paint75_linear_377_3908" x1="366.938" y1="2502.44" x2="345.508" y2="2523.43" gradientUnits="userSpaceOnUse">
<stop stop-color="#FF5A23"/>
<stop offset="0.46875" stop-color="#FF3200" stop-opacity="0.53125"/>
<stop offset="0.46885" stop-color="#FF3200" stop-opacity="0.53125"/>
<stop offset="1" stop-color="#FF3200" stop-opacity="0"/>
</linearGradient>
<linearGradient id="paint76_linear_377_3908" x1="376.75" y1="2545.32" x2="354.605" y2="2567.02" gradientUnits="userSpaceOnUse">
<stop stop-color="#FF5A23"/>
<stop offset="0.46875" stop-color="#FF3200" stop-opacity="0.53125"/>
<stop offset="0.46885" stop-color="#FF3200" stop-opacity="0.53125"/>
<stop offset="1" stop-color="#FF3200" stop-opacity="0"/>
</linearGradient>
<linearGradient id="paint77_linear_377_3908" x1="358.906" y1="2527.11" x2="336.761" y2="2548.8" gradientUnits="userSpaceOnUse">
<stop stop-color="#FF5A23"/>
<stop offset="0.46875" stop-color="#FF3200" stop-opacity="0.53125"/>
<stop offset="0.46885" stop-color="#FF3200" stop-opacity="0.53125"/>
<stop offset="1" stop-color="#FF3200" stop-opacity="0"/>
</linearGradient>
<linearGradient id="paint78_linear_377_3908" x1="384.783" y1="2520.66" x2="363.352" y2="2541.65" gradientUnits="userSpaceOnUse">
<stop stop-color="#FF5A23"/>
<stop offset="0.46875" stop-color="#FF3200" stop-opacity="0.53125"/>
<stop offset="0.46885" stop-color="#FF3200" stop-opacity="0.53125"/>
<stop offset="1" stop-color="#FF3200" stop-opacity="0"/>
</linearGradient>
</defs>
</svg>
