<svg width="284" height="539" viewBox="0 0 284 539" fill="none" xmlns="http://www.w3.org/2000/svg">
<path d="M1 1L29.5448 17.452V53.5198L57.4552 69.339V106.04L86 121.859V156.661L57.4552 173.113" stroke="url(#paint0_linear_339_2252)" stroke-opacity="0.6" stroke-width="1.5"/>
<path d="M141.765 156.806L142.398 121.329L114.524 104.857L86.0153 121.329V156.806L114.524 173.277L141.765 156.806Z" stroke="url(#paint1_linear_339_2252)" stroke-opacity="0.4" stroke-width="1.5"/>
<path d="M57.1438 104.857L57.7773 69.3797L29.9025 52.9082L1.39417 69.3797V104.857L29.9025 121.328L57.1438 104.857Z" stroke="url(#paint2_linear_339_2252)" stroke-opacity="0.4" stroke-width="1.5"/>
<path d="M84.7493 157.806L85.3828 122.329L57.508 105.857L28.9996 122.329V157.806L57.508 174.277L84.7493 157.806Z" stroke="url(#paint3_linear_339_2252)" stroke-opacity="0.4" stroke-width="1.5"/>
<path d="M113.624 208.753L114.258 173.276L86.383 156.805L57.8746 173.276V208.753L86.383 225.225L113.624 208.753Z" stroke="url(#paint4_linear_339_2252)" stroke-opacity="0.4" stroke-width="1.5"/>
<path d="M197.324 157.003L197.957 121.526L170.082 105.055L141.574 121.526V157.003L170.082 173.475L197.324 157.003Z" stroke="url(#paint5_linear_339_2252)" stroke-opacity="0.3" stroke-width="1.5"/>
<path d="M225.199 208.952L225.832 173.475L197.957 157.004L169.449 173.475V208.952L197.957 225.424L225.199 208.952Z" stroke="url(#paint6_linear_339_2252)" stroke-opacity="0.3" stroke-width="1.5"/>
<path d="M140.749 469.949L141.383 434.471L113.508 418L84.9996 434.471V469.949L113.508 486.42L140.749 469.949Z" stroke="url(#paint7_linear_339_2252)" stroke-opacity="0.3" stroke-width="1.5"/>
<path d="M169.449 105.056L170.082 69.5789L142.207 53.1074L113.699 69.5789V105.056L142.207 121.527L169.449 105.056Z" stroke="url(#paint8_linear_339_2252)" stroke-opacity="0.3" stroke-width="1.5"/>
<path d="M199.223 121.527L170.714 105.056V69.5789" stroke="url(#paint9_linear_339_2252)" stroke-opacity="0.3" stroke-width="1.5"/>
<path d="M225.749 417.882L226.383 382.405L198.508 365.933L170 382.405V417.882L198.508 434.353L225.749 417.882Z" stroke="url(#paint10_linear_339_2252)" stroke-opacity="0.3" stroke-width="1.5"/>
<path d="M254.749 157.949L255.383 122.471L227.508 106L199 122.471V157.949L227.508 174.42L254.749 157.949Z" stroke="url(#paint11_linear_339_2252)" stroke-opacity="0.1" stroke-width="1.5"/>
<path d="M112.749 312.949L113.383 277.471L85.508 261L56.9996 277.471V312.949L85.508 329.42L112.749 312.949Z" stroke="url(#paint12_linear_339_2252)" stroke-opacity="0.3" stroke-width="1.5"/>
<path d="M254.248 365.429L254.882 329.952L227.007 313.48L198.499 329.952V365.429L227.007 381.9L254.248 365.429Z" stroke="url(#paint13_linear_339_2252)" stroke-opacity="0.2"/>
<path d="M282.749 417.949L283.383 382.471L255.508 366L227 382.471V417.949L255.508 434.42L282.749 417.949Z" stroke="url(#paint14_linear_339_2252)" stroke-opacity="0.1"/>
<path d="M168.749 521.949L169.383 486.471L141.508 470L113 486.471V521.949L141.508 538.42L168.749 521.949Z" stroke="url(#paint15_linear_339_2252)" stroke-opacity="0.3"/>
<path d="M142.047 53.5198L169.957 69.339V106.04L198.502 121.859V156.661L169.957 173.113V207.282L196.599 225" stroke="url(#paint16_linear_339_2252)" stroke-opacity="0.5" stroke-width="1.5"/>
<path d="M170.541 314L198.451 329.819V366.52L226.996 382.339V417.141L198.451 433.593V467.763L225.093 485.48" stroke="url(#paint17_linear_339_2252)" stroke-opacity="0.3" stroke-width="1.5"/>
<path d="M84.8645 260.949L85.498 225.471L57.6232 209L29.1149 225.471V260.949L57.6232 277.42L84.8645 260.949Z" stroke="url(#paint18_linear_339_2252)" stroke-opacity="0.4" stroke-width="1.5"/>
<path d="M112.865 417.949L113.498 382.471L85.6232 366L57.1149 382.471V417.949L85.6232 434.42L112.865 417.949Z" stroke="url(#paint19_linear_339_2252)" stroke-opacity="0.4"/>
<path d="M141.499 260.392L142.133 224.915L114.258 208.444L85.7496 224.915V260.392L114.258 276.864L141.499 260.392Z" stroke="url(#paint20_linear_339_2252)" stroke-opacity="0.3" stroke-width="1.5"/>
<path d="M169.372 312.341L170.006 276.864L142.131 260.392L113.623 276.864V312.341L142.131 328.812L169.372 312.341Z" stroke="url(#paint21_linear_339_2252)" stroke-opacity="0.3" stroke-width="1.5"/>
<path d="M84.7493 365.949L85.3828 330.471L57.508 314L28.9996 330.471V365.949L57.508 382.42L84.7493 365.949Z" stroke="url(#paint22_linear_339_2252)" stroke-opacity="0.3"/>
<path d="M85 261.48L113.545 277.932V314L141.455 329.819L142.5 365L170 382.339V417.141L141.455 433.593V467.763L168.097 485.48" stroke="url(#paint23_linear_339_2252)" stroke-opacity="0.4" stroke-width="1.5"/>
<path d="M85.5448 156L113.455 171.819V208.52L142 224.339V259.141L113.455 275.593V309.763L140.097 327.48" stroke="url(#paint24_linear_339_2252)" stroke-opacity="0.25" stroke-width="1.5"/>
<path d="M57.498 209L86.0428 225.452V261.52L113.953 277.339V314.04L142.498 329.859V364.661L113.953 381.113V415.282L140.595 433" stroke="url(#paint25_linear_339_2252)" stroke-opacity="0.3" stroke-width="1.5"/>
<path d="M57 314L85.5448 330.452V366.52L113.455 382.339V419.04L142 434.859V469.661L113.455 486.113V520.282L140.097 538" stroke="url(#paint26_linear_339_2252)" stroke-opacity="0.3" stroke-width="1.5"/>
<defs>
<linearGradient id="paint0_linear_339_2252" x1="43.5" y1="1" x2="43.5" y2="225" gradientUnits="userSpaceOnUse">
<stop offset="0.015625" stop-color="#FFA000"/>
<stop offset="0.934726" stop-color="#FFA000" stop-opacity="0"/>
</linearGradient>
<linearGradient id="paint1_linear_339_2252" x1="114.207" y1="104.857" x2="114.207" y2="173.277" gradientUnits="userSpaceOnUse">
<stop stop-color="#FF5A23"/>
<stop offset="0.46875" stop-color="#FF3200" stop-opacity="0.53125"/>
<stop offset="0.46885" stop-color="#FF3200" stop-opacity="0.53125"/>
<stop offset="1" stop-color="#FF3200" stop-opacity="0"/>
</linearGradient>
<linearGradient id="paint2_linear_339_2252" x1="29.5858" y1="52.9082" x2="29.5858" y2="121.328" gradientUnits="userSpaceOnUse">
<stop stop-color="#FF5A23"/>
<stop offset="0.46875" stop-color="#FF3200" stop-opacity="0.53125"/>
<stop offset="0.46885" stop-color="#FF3200" stop-opacity="0.53125"/>
<stop offset="1" stop-color="#FF3200" stop-opacity="0"/>
</linearGradient>
<linearGradient id="paint3_linear_339_2252" x1="57.1912" y1="105.857" x2="57.1912" y2="174.277" gradientUnits="userSpaceOnUse">
<stop stop-color="#FF5A23"/>
<stop offset="0.46875" stop-color="#FF3200" stop-opacity="0.53125"/>
<stop offset="0.46885" stop-color="#FF3200" stop-opacity="0.53125"/>
<stop offset="1" stop-color="#FF3200" stop-opacity="0"/>
</linearGradient>
<linearGradient id="paint4_linear_339_2252" x1="86.0662" y1="156.805" x2="86.0662" y2="225.225" gradientUnits="userSpaceOnUse">
<stop stop-color="#FF5A23"/>
<stop offset="0.46875" stop-color="#FF3200" stop-opacity="0.53125"/>
<stop offset="0.46885" stop-color="#FF3200" stop-opacity="0.53125"/>
<stop offset="1" stop-color="#FF3200" stop-opacity="0"/>
</linearGradient>
<linearGradient id="paint5_linear_339_2252" x1="169.765" y1="105.055" x2="169.765" y2="173.475" gradientUnits="userSpaceOnUse">
<stop stop-color="#FF5A23"/>
<stop offset="0.46875" stop-color="#FF3200" stop-opacity="0.53125"/>
<stop offset="0.46885" stop-color="#FF3200" stop-opacity="0.53125"/>
<stop offset="1" stop-color="#FF3200" stop-opacity="0"/>
</linearGradient>
<linearGradient id="paint6_linear_339_2252" x1="197.64" y1="157.004" x2="197.64" y2="225.424" gradientUnits="userSpaceOnUse">
<stop stop-color="#FF5A23"/>
<stop offset="0.46875" stop-color="#FF3200" stop-opacity="0.53125"/>
<stop offset="0.46885" stop-color="#FF3200" stop-opacity="0.53125"/>
<stop offset="1" stop-color="#FF3200" stop-opacity="0"/>
</linearGradient>
<linearGradient id="paint7_linear_339_2252" x1="113.191" y1="418" x2="113.191" y2="486.42" gradientUnits="userSpaceOnUse">
<stop stop-color="#FF5A23"/>
<stop offset="0.46875" stop-color="#FF3200" stop-opacity="0.53125"/>
<stop offset="0.46885" stop-color="#FF3200" stop-opacity="0.53125"/>
<stop offset="1" stop-color="#FF3200" stop-opacity="0"/>
</linearGradient>
<linearGradient id="paint8_linear_339_2252" x1="141.89" y1="53.1074" x2="141.89" y2="121.527" gradientUnits="userSpaceOnUse">
<stop stop-color="#FF5A23"/>
<stop offset="0.46875" stop-color="#FF3200" stop-opacity="0.53125"/>
<stop offset="0.46885" stop-color="#FF3200" stop-opacity="0.53125"/>
<stop offset="1" stop-color="#FF3200" stop-opacity="0"/>
</linearGradient>
<linearGradient id="paint9_linear_339_2252" x1="198.906" y1="53.1074" x2="198.906" y2="121.527" gradientUnits="userSpaceOnUse">
<stop stop-color="#FF5A23"/>
<stop offset="0.46875" stop-color="#FF3200" stop-opacity="0.53125"/>
<stop offset="0.46885" stop-color="#FF3200" stop-opacity="0.53125"/>
<stop offset="1" stop-color="#FF3200" stop-opacity="0"/>
</linearGradient>
<linearGradient id="paint10_linear_339_2252" x1="198.191" y1="365.933" x2="198.191" y2="434.353" gradientUnits="userSpaceOnUse">
<stop stop-color="#FF5A23"/>
<stop offset="0.46875" stop-color="#FF3200" stop-opacity="0.53125"/>
<stop offset="0.46885" stop-color="#FF3200" stop-opacity="0.53125"/>
<stop offset="1" stop-color="#FF3200" stop-opacity="0"/>
</linearGradient>
<linearGradient id="paint11_linear_339_2252" x1="227.191" y1="106" x2="227.191" y2="174.42" gradientUnits="userSpaceOnUse">
<stop stop-color="#FF5A23"/>
<stop offset="0.46875" stop-color="#FF3200" stop-opacity="0.53125"/>
<stop offset="0.46885" stop-color="#FF3200" stop-opacity="0.53125"/>
<stop offset="1" stop-color="#FF3200" stop-opacity="0"/>
</linearGradient>
<linearGradient id="paint12_linear_339_2252" x1="85.1912" y1="261" x2="85.1912" y2="329.42" gradientUnits="userSpaceOnUse">
<stop stop-color="#FF5A23"/>
<stop offset="0.46875" stop-color="#FF3200" stop-opacity="0.53125"/>
<stop offset="0.46885" stop-color="#FF3200" stop-opacity="0.53125"/>
<stop offset="1" stop-color="#FF3200" stop-opacity="0"/>
</linearGradient>
<linearGradient id="paint13_linear_339_2252" x1="226.69" y1="313.48" x2="226.69" y2="381.9" gradientUnits="userSpaceOnUse">
<stop stop-color="#FF5A23"/>
<stop offset="0.46875" stop-color="#FF3200" stop-opacity="0.53125"/>
<stop offset="0.46885" stop-color="#FF3200" stop-opacity="0.53125"/>
<stop offset="1" stop-color="#FF3200" stop-opacity="0"/>
</linearGradient>
<linearGradient id="paint14_linear_339_2252" x1="255.191" y1="366" x2="255.191" y2="434.42" gradientUnits="userSpaceOnUse">
<stop stop-color="#FF5A23"/>
<stop offset="0.46875" stop-color="#FF3200" stop-opacity="0.53125"/>
<stop offset="0.46885" stop-color="#FF3200" stop-opacity="0.53125"/>
<stop offset="1" stop-color="#FF3200" stop-opacity="0"/>
</linearGradient>
<linearGradient id="paint15_linear_339_2252" x1="141.191" y1="470" x2="141.191" y2="538.42" gradientUnits="userSpaceOnUse">
<stop stop-color="#FF5A23"/>
<stop offset="0.46875" stop-color="#FF3200" stop-opacity="0.53125"/>
<stop offset="0.46885" stop-color="#FF3200" stop-opacity="0.53125"/>
<stop offset="1" stop-color="#FF3200" stop-opacity="0"/>
</linearGradient>
<linearGradient id="paint16_linear_339_2252" x1="156.002" y1="1" x2="156.002" y2="225" gradientUnits="userSpaceOnUse">
<stop offset="0.015625" stop-color="#FFA000"/>
<stop offset="0.934726" stop-color="#FFA000" stop-opacity="0"/>
</linearGradient>
<linearGradient id="paint17_linear_339_2252" x1="184.496" y1="261.48" x2="184.496" y2="485.48" gradientUnits="userSpaceOnUse">
<stop offset="0.015625" stop-color="#FFA000"/>
<stop offset="0.934726" stop-color="#FFA000" stop-opacity="0"/>
</linearGradient>
<linearGradient id="paint18_linear_339_2252" x1="57.3065" y1="209" x2="57.3065" y2="277.42" gradientUnits="userSpaceOnUse">
<stop stop-color="#FF5A23"/>
<stop offset="0.46875" stop-color="#FF3200" stop-opacity="0.53125"/>
<stop offset="0.46885" stop-color="#FF3200" stop-opacity="0.53125"/>
<stop offset="1" stop-color="#FF3200" stop-opacity="0"/>
</linearGradient>
<linearGradient id="paint19_linear_339_2252" x1="85.3065" y1="366" x2="85.3065" y2="434.42" gradientUnits="userSpaceOnUse">
<stop stop-color="#FF5A23"/>
<stop offset="0.46875" stop-color="#FF3200" stop-opacity="0.53125"/>
<stop offset="0.46885" stop-color="#FF3200" stop-opacity="0.53125"/>
<stop offset="1" stop-color="#FF3200" stop-opacity="0"/>
</linearGradient>
<linearGradient id="paint20_linear_339_2252" x1="113.941" y1="208.444" x2="113.941" y2="276.864" gradientUnits="userSpaceOnUse">
<stop stop-color="#FF5A23"/>
<stop offset="0.46875" stop-color="#FF3200" stop-opacity="0.53125"/>
<stop offset="0.46885" stop-color="#FF3200" stop-opacity="0.53125"/>
<stop offset="1" stop-color="#FF3200" stop-opacity="0"/>
</linearGradient>
<linearGradient id="paint21_linear_339_2252" x1="141.814" y1="260.392" x2="141.814" y2="328.812" gradientUnits="userSpaceOnUse">
<stop stop-color="#FF5A23"/>
<stop offset="0.46875" stop-color="#FF3200" stop-opacity="0.53125"/>
<stop offset="0.46885" stop-color="#FF3200" stop-opacity="0.53125"/>
<stop offset="1" stop-color="#FF3200" stop-opacity="0"/>
</linearGradient>
<linearGradient id="paint22_linear_339_2252" x1="57.1912" y1="314" x2="57.1912" y2="382.42" gradientUnits="userSpaceOnUse">
<stop stop-color="#FF5A23"/>
<stop offset="0.46875" stop-color="#FF3200" stop-opacity="0.53125"/>
<stop offset="0.46885" stop-color="#FF3200" stop-opacity="0.53125"/>
<stop offset="1" stop-color="#FF3200" stop-opacity="0"/>
</linearGradient>
<linearGradient id="paint23_linear_339_2252" x1="127.5" y1="261.48" x2="127.5" y2="485.48" gradientUnits="userSpaceOnUse">
<stop offset="0.015625" stop-color="#FFA000"/>
<stop offset="0.934726" stop-color="#FFA000" stop-opacity="0"/>
</linearGradient>
<linearGradient id="paint24_linear_339_2252" x1="99.5" y1="103.48" x2="99.5" y2="327.48" gradientUnits="userSpaceOnUse">
<stop offset="0.015625" stop-color="#FFA000"/>
<stop offset="0.934726" stop-color="#FFA000" stop-opacity="0"/>
</linearGradient>
<linearGradient id="paint25_linear_339_2252" x1="99.998" y1="209" x2="99.998" y2="433" gradientUnits="userSpaceOnUse">
<stop offset="0.015625" stop-color="#FFA000"/>
<stop offset="0.934726" stop-color="#FFA000" stop-opacity="0"/>
</linearGradient>
<linearGradient id="paint26_linear_339_2252" x1="99.5" y1="314" x2="99.5" y2="538" gradientUnits="userSpaceOnUse">
<stop offset="0.015625" stop-color="#FFA000"/>
<stop offset="0.934726" stop-color="#FFA000" stop-opacity="0"/>
</linearGradient>
</defs>
</svg>
